<svg width="41" height="41" viewBox="0 0 41 41" fill="none" xmlns="http://www.w3.org/2000/svg">
<path fill-rule="evenodd" clip-rule="evenodd" d="M23.2501 15.9785C23.8538 16.8299 25.4703 19.0316 26.0986 19.0316H29.9583C31.938 19.0316 31.938 22.0334 29.9583 22.0334H26.0986C25.2053 22.0334 24.1782 21.3405 23.2501 20.4851L22.8308 27.2747L24.6166 39.2014C24.9014 41.1592 21.9185 41.5805 21.6384 39.6346L19.7853 27.2747H19.4609L17.6085 39.6346C17.3284 41.5805 14.3447 41.1592 14.6295 39.2014L16.4154 27.2747L15.9999 19.2762C15.0758 21.3366 15.2055 25.0249 15.2055 26.282C15.2055 28.2555 12.1956 28.2555 12.1956 26.282C12.1956 22.8659 12.2075 16.6122 15.9999 15.1476C17.3751 14.5676 21.0141 14.098 23.2501 15.9785ZM19.6231 6.88867C21.492 6.88867 23.0167 8.40141 23.0167 10.2724C23.0167 12.1371 21.492 13.6498 19.6231 13.6498C17.7549 13.6498 16.2334 12.1371 16.2334 10.2724C16.2334 8.40141 17.7549 6.88867 19.6231 6.88867Z" fill="#8787FF"/>
<path d="M12.5 30.3994H6C3.79086 30.3994 2 28.6086 2 26.3994L2 6.39941C2 4.19027 3.79086 2.39941 6 2.39941H35C37.2091 2.39941 39 4.19028 39 6.39941V26.3994C39 28.6086 37.2091 30.3994 35 30.3994H26.5" stroke="#8787FF" stroke-width="3" stroke-linecap="round" stroke-linejoin="round"/>
</svg>
