<svg width="58" height="36" viewBox="0 0 58 36" fill="none" xmlns="http://www.w3.org/2000/svg">
<path d="M15.4684 18.1723C15.4292 18.2324 15.3532 18.422 15.2495 18.7386C15.1435 19.0576 15.0144 19.4552 14.8624 19.9406C14.7103 20.4191 14.5444 20.9577 14.3692 21.5517L13.8231 23.3732C13.6158 23.9926 13.4545 24.5982 13.2701 25.1946L12.8093 26.808L12.4636 28.0146L12.3023 28.5925C12.2332 28.7843 12.1641 28.997 12.0489 29.2328C11.9337 29.4639 11.7954 29.6881 11.6572 29.8985C11.4959 30.1065 11.3346 30.2845 11.1502 30.4232C10.9659 30.5618 10.7815 30.6312 10.5742 30.6312C10.2516 30.6312 10.0211 30.5202 9.85985 30.3076C9.69855 30.088 9.62943 29.6927 9.62943 29.1149V28.5925C9.62943 28.4006 9.72159 28.0377 9.85985 27.5107C9.9981 26.9791 10.1594 26.3827 10.3668 25.717C10.5511 25.0467 10.7815 24.3578 10.9889 23.6436L11.6111 21.702C11.0581 22.3029 10.482 22.9039 9.85985 23.4818C9.2377 24.0828 8.59252 24.6144 7.94733 25.0767C7.2791 25.539 6.61087 25.932 5.94264 26.2325C5.27441 26.5329 4.62922 26.6716 4.00708 26.6716C3.29276 26.6716 2.69366 26.5098 2.18673 26.1862C1.67979 25.8626 1.24199 25.4697 0.919392 24.9611C0.596798 24.4526 0.343332 23.8747 0.182035 23.2507C0.0921697 22.652 0 22.0048 0 21.3807V21.1495C0 21.0802 0.00921697 21.0039 0.0230424 20.9322C0.0783442 19.7765 0.241945 18.5976 0.506933 17.3864C0.783442 16.166 1.12908 14.9594 1.56688 13.7574C2.00469 12.5555 2.51162 11.3766 3.08768 10.2301C3.68679 9.12984 4.30893 8.04345 4.97716 7.0264C5.64539 6.00935 6.36432 5.06164 7.12011 4.2064C7.88051 3.34653 8.65703 2.60686 9.45661 1.98738C10.2539 1.36328 11.0604 0.877873 11.8761 0.531151C12.6825 0.18443 13.489 -0.000488281 14.2863 -0.000488281C15.208 -0.000488281 16.0974 0.253774 16.9592 0.755364C17.8118 1.27082 18.6183 2.07984 19.3741 3.21246C19.5446 3.46673 19.6506 3.72099 19.6967 3.97987C19.7427 4.23414 19.7658 4.48146 19.7658 4.70799C19.7658 5.24887 19.6391 5.67881 19.381 5.98855C19.1275 6.31215 18.828 6.45084 18.4593 6.45084C18.1367 6.45084 17.8371 6.28904 17.5606 5.94232C17.2841 5.5956 16.9615 5.11019 16.6389 4.48609C16.3163 3.90822 15.9707 3.49215 15.579 3.23789C15.1873 2.98363 14.7725 2.86805 14.3116 2.86805C13.5973 2.86805 12.86 3.16855 12.0535 3.76953C11.247 4.37051 10.4636 5.1333 9.68012 6.10412C8.89668 7.07494 8.13628 8.18445 7.42196 9.43265C6.70765 10.6808 6.06246 11.9522 5.50944 13.2697C4.95642 14.5872 4.51862 15.8586 4.19602 17.1299C3.87343 18.4012 3.71213 19.5338 3.71213 20.5508C3.71213 20.8976 3.73518 21.2443 3.78126 21.591C3.82735 21.9608 3.91951 22.2613 4.03473 22.5618C4.14994 22.8623 4.33428 23.0935 4.5647 23.2784C4.79513 23.4633 5.07164 23.5558 5.39423 23.5558C5.76291 23.5558 6.20071 23.4402 6.66156 23.1859C7.14545 22.9317 7.62934 22.6081 8.13628 22.192C8.64321 21.7759 9.17319 21.3136 9.68012 20.8051C10.1871 20.2966 10.694 19.7649 11.1318 19.2333C11.5696 18.7017 11.9844 18.1931 12.307 17.7077C12.6526 17.2223 12.9061 16.8063 13.0904 16.4364L14.4246 12.1348C14.5951 11.6794 14.8163 11.3535 15.0997 11.1639C15.3762 10.9698 15.6596 10.8727 15.9523 10.8727C16.0905 10.8727 16.2357 10.8958 16.3785 10.942C16.5168 10.9883 16.6504 11.0622 16.7634 11.1639C16.8786 11.2564 16.9638 11.3951 17.0306 11.5569C17.0998 11.7187 17.1459 11.9036 17.1459 12.1348C17.1459 12.7126 17.0998 13.2581 17.0076 13.762C16.9154 14.2706 16.7772 14.756 16.6159 15.2414C16.4776 15.7152 16.2933 16.1983 16.109 16.6861C15.9246 17.1715 15.7403 17.68 15.5559 18.2116L15.4684 18.1723ZM34.6005 21.7043C34.1558 22.3053 33.6373 22.8924 33.0474 23.461C32.4552 24.0342 31.8446 24.5428 31.2179 24.9866C30.5911 25.4304 29.9736 25.7887 29.3676 26.0591C28.7592 26.3295 28.2154 26.4636 27.7315 26.4636C27.2477 26.4636 26.849 26.3018 26.5449 25.9782C26.2407 25.6546 26.0886 25.0998 26.0886 24.3139C26.0886 23.7592 26.1716 23.112 26.3329 22.3723C26.0702 22.8346 25.7407 23.32 25.3467 23.7823C24.9549 24.2677 24.501 24.7069 23.9964 25.0998C23.4894 25.4928 22.9226 25.8164 22.2958 26.0475C21.6691 26.2787 20.987 26.4174 20.2451 26.4174C19.9156 26.4174 19.593 26.3711 19.2842 26.2787C18.9616 26.1862 18.6851 26.0475 18.4547 25.8395C18.2242 25.6315 18.0399 25.3541 17.8786 25.0074C17.7404 24.6607 17.6712 24.2215 17.6712 23.7129L17.7173 23.1582C17.7634 22.8115 17.8786 22.2336 18.109 21.4708C18.3395 20.708 18.6621 19.7141 19.1229 18.489C19.5837 17.2639 20.2059 15.8077 21.0354 14.0741C21.2428 13.6118 21.4732 13.2882 21.7728 13.0802C22.0493 12.8721 22.3488 12.7797 22.6714 12.7797C22.8097 12.7797 22.9479 12.8028 23.1092 12.849C23.2475 12.8721 23.3857 12.9415 23.524 13.0339C23.6623 13.1264 23.7544 13.242 23.8466 13.3806C23.9157 13.4962 23.9618 13.658 23.9618 13.8429C23.9618 13.9585 23.9388 14.0741 23.9157 14.1665C23.8466 14.3746 23.7544 14.6288 23.5931 14.9525L22.994 16.0943C22.7636 16.5104 22.5332 16.9727 22.2797 17.4627C22.0262 17.9551 21.7958 18.4798 21.5884 18.9929C21.3811 19.5246 21.1967 20.0677 21.0354 20.6109C20.8741 21.1657 20.782 21.6973 20.7589 22.2059C20.7589 22.437 20.805 22.6219 20.8972 22.8068C20.9893 22.9918 21.1737 23.0842 21.4041 23.0842C22.0493 23.0842 22.6945 22.8762 23.2936 22.437C23.8927 22.0048 24.4457 21.4662 24.9526 20.8236C25.4596 20.1764 25.9204 19.4829 26.3352 18.7433C26.7499 18.0036 27.0725 17.3333 27.349 16.723C27.5334 16.3139 27.7177 15.8747 27.856 15.4055C27.9942 14.9432 28.1555 14.504 28.3399 14.1111C28.5012 13.7181 28.7085 13.3806 28.939 13.1171C29.1464 12.8536 29.4229 12.7242 29.7685 12.7242C30.1141 12.7242 30.4137 12.8629 30.6211 13.1403C30.8284 13.4176 30.9437 13.7412 30.9437 14.1342C30.9437 14.3422 30.8745 14.6427 30.7363 15.0125C30.598 15.3824 30.4367 15.8216 30.2293 16.307L29.5611 17.8718C29.3076 18.4266 29.1003 18.9814 28.8929 19.5592C28.6855 20.1255 28.5012 20.6918 28.3629 21.2327C28.2247 21.7875 28.1555 22.296 28.1555 22.7583C28.1555 23.1975 28.386 23.4055 28.8238 23.4055C29.1464 23.4055 29.5381 23.3131 29.9989 23.0819C30.4598 22.8739 30.9437 22.5734 31.4506 22.1804C31.9575 21.7875 32.4645 21.3252 32.9714 20.7936C33.4783 20.2619 33.9392 19.6979 34.3309 19.0831L34.4922 21.5332L34.6005 21.7043Z" fill="#CF4647"/>
<path d="M35.0701 20.8028C34.9595 21.0802 34.8512 21.4038 34.7475 21.769C34.6392 22.1342 34.5862 22.4624 34.5862 22.7514C34.5862 22.9317 34.6162 23.075 34.6784 23.1836C34.7383 23.2922 34.8535 23.3454 35.024 23.3454C35.2383 23.3454 35.5033 23.2714 35.8236 23.1212C36.1416 22.9709 36.4849 22.7745 36.8536 22.5248C37.2223 22.2798 37.6094 21.9978 38.0057 21.6788C38.4066 21.3552 38.8053 21.0085 39.1993 20.6849C39.591 20.3382 39.9689 19.9915 40.3284 19.6447C40.6878 19.298 41.0104 18.9744 41.2962 18.697C41.3745 18.6046 41.469 18.5583 41.5819 18.5121C41.6925 18.4659 41.7893 18.4428 41.8699 18.4428C42.0773 18.4428 42.2386 18.5121 42.3769 18.697C42.5151 18.8588 42.5842 19.09 42.5842 19.3674C42.5842 19.6216 42.5151 19.899 42.3769 20.1995C42.2386 20.5 41.9851 20.8005 41.6395 21.101C40.9943 21.7944 40.3491 22.4647 39.6809 23.1119C39.0357 23.736 38.3675 24.3139 37.7223 24.7993C37.0771 25.2847 36.4319 25.6546 35.7867 25.9551C35.1415 26.2324 34.5194 26.3711 33.9203 26.3711C33.5055 26.3711 33.1599 26.3018 32.8834 26.1631C32.6069 26.0244 32.3995 25.8395 32.2152 25.6083C32.0539 25.3772 31.9386 25.0998 31.8695 24.7993C31.8004 24.4757 31.7773 24.1521 31.7773 23.8054C31.7773 23.2044 31.8465 22.6034 32.0078 21.9793C32.1691 21.3552 32.3304 20.7774 32.5377 20.2688C32.9064 19.3211 33.2521 18.3965 33.6207 17.4719L34.6346 14.9293L39.2177 3.35115C39.3906 2.88885 39.6325 2.56062 39.9436 2.35721C40.2569 2.17229 40.5657 2.07983 40.8814 2.07983C41.204 2.07983 41.4805 2.17229 41.7432 2.38033C41.9967 2.57911 42.1349 2.91196 42.1349 3.36733C42.1349 3.58229 42.0888 3.81113 42.0082 4.05152C41.916 4.28267 41.8238 4.54618 41.6856 4.82124C41.4321 5.38062 41.1326 6.06944 40.7869 6.8877L39.6348 9.56901C39.2431 10.5283 38.8283 11.5338 38.4136 12.5739L37.1693 15.6251C36.7545 16.6144 36.3858 17.5436 36.0402 18.4312L35.1415 20.7265L35.0701 20.8028Z" fill="#CF4647"/>
<path d="M56.5691 17.5436C56.7142 17.4443 56.8456 17.3657 56.9677 17.3056C57.0875 17.2455 57.205 17.2131 57.3133 17.2131C57.5369 17.2131 57.7051 17.3148 57.8157 17.5136C57.9309 17.7124 58 17.9528 58 18.244C58 18.5561 57.9309 18.8751 57.7926 19.1987C57.6544 19.5223 57.47 19.795 57.1935 20.0077C56.1105 20.9716 55.1427 21.8499 54.3132 22.6428C53.4607 23.4356 52.6772 24.1175 51.9168 24.6884C51.1564 25.2663 50.4191 25.7055 49.7047 26.0291C48.9904 26.3527 48.23 26.5145 47.4005 26.5145C46.6401 26.5145 46.041 26.3527 45.6262 26.006C45.2115 25.6824 45.0041 25.2201 45.0041 24.6191V24.4804C45.0041 24.4573 45.0271 24.3879 45.0271 24.3417C45.0732 23.995 45.2345 23.5789 45.511 23.0935C45.7875 22.6312 46.1101 22.1458 46.5018 21.6373C46.8936 21.1287 47.3083 20.6202 47.7461 20.1117C48.1839 19.6032 48.5757 19.1178 48.9674 18.6555C49.3361 18.1932 49.6356 17.7771 49.8891 17.3842C50.1425 17.0143 50.2578 16.6907 50.2578 16.4596C50.2578 16.3209 50.2117 16.2053 50.1149 16.1128C50.0066 16.0435 49.8384 15.9973 49.608 15.9973C49.1932 15.9973 48.7784 16.1128 48.3498 16.3209C47.912 16.5289 47.4835 16.8294 47.0595 17.1761C46.6447 17.546 46.2299 17.9389 45.8336 18.4012C45.4373 18.8635 45.0732 19.3489 44.7045 19.8343C44.3589 20.3428 44.0363 20.8283 43.7368 21.3368C43.4602 21.8453 43.2068 22.3076 42.9994 22.7237L42.7459 23.2784L42.4003 24.1105L41.9855 25.0351L41.5938 25.9366L41.2712 26.6994C41.179 26.9305 41.1099 27.0692 41.0638 27.1617C41.0177 27.2773 40.9486 27.4853 40.8334 27.7858L40.4186 28.8444L39.9348 30.1158L39.4739 31.364L39.0822 32.4226C38.967 32.7231 38.8978 32.9265 38.8748 33.0352C38.7596 33.3356 38.6444 33.6361 38.5061 33.9135C38.3679 34.1909 38.2181 34.429 38.0407 34.6393C37.8655 34.8474 37.6628 35.0207 37.4347 35.1478C37.2042 35.2634 36.9508 35.3328 36.6743 35.3328C36.3056 35.3328 36.006 35.2403 35.7756 35.0739C35.5452 34.9121 35.4069 34.5654 35.4069 34.0799C35.4069 33.8488 35.43 33.5945 35.4991 33.3403C35.5452 33.086 35.6373 32.8502 35.7295 32.6006C35.7986 32.3463 35.9139 32.1152 36.006 31.884C36.0982 31.6529 36.1904 31.4217 36.2595 31.1998C36.7895 29.9979 37.354 28.7959 37.9185 27.5801C38.4831 26.3642 39.0246 25.1761 39.5546 23.9973C40.0753 22.8184 40.5569 21.6627 41.0062 20.507C41.444 19.3743 41.8127 18.2741 42.1123 17.2247L42.4349 16.3093C42.5731 15.9164 42.7344 15.5234 42.9187 15.1536C43.1031 14.7837 43.3105 14.437 43.5409 14.1596C43.7713 13.8823 44.0248 13.7366 44.2782 13.7366C44.693 13.7366 44.9857 13.8291 45.1677 14.014C45.352 14.2174 45.4442 14.4763 45.4442 14.8462C45.4442 14.9155 45.435 15.0311 45.4142 15.1929C45.3912 15.3547 45.3682 15.5165 45.3313 15.6898L45.2322 16.1753C45.2092 16.3371 45.1631 16.4526 45.14 16.522C45.5087 16.1152 45.9235 15.713 46.3567 15.3085C46.7945 14.9086 47.2553 14.5457 47.7162 14.2221C48.177 13.8985 48.6609 13.6211 49.1448 13.4246C49.6287 13.2166 50.1126 13.1125 50.5965 13.1125C50.9421 13.1125 51.2647 13.1588 51.6011 13.2512C51.9237 13.3483 52.2233 13.4893 52.4767 13.6765C52.7463 13.8615 52.956 14.0926 53.1173 14.37C53.2786 14.6474 53.3593 14.9779 53.3593 15.3501C53.3593 15.8424 53.2302 16.3671 52.9906 16.9219C52.7371 17.4859 52.4376 18.0545 52.0551 18.6092C51.6864 19.1779 51.2785 19.728 50.843 20.2619C50.4052 20.7936 50.0135 21.279 49.6218 21.7182L48.654 22.8508C48.4005 23.1513 48.2623 23.3593 48.2577 23.4749C48.2577 23.6136 48.3038 23.7292 48.3959 23.8216C48.4881 23.9141 48.6494 23.9603 48.8568 23.9603C49.0365 23.9603 49.29 23.8563 49.6172 23.6598C49.9582 23.4518 50.4237 23.1282 51.0228 22.652C51.6219 22.1666 52.3961 21.5425 53.3201 20.7335C54.2418 19.9337 55.3939 18.9305 56.7465 17.7124L56.5691 17.5436Z" fill="#CF4647"/>
</svg>
