<svg width="168" height="24" viewBox="0 0 168 24" fill="none" xmlns="http://www.w3.org/2000/svg">
<path d="M96.0367 10.1625C96.0367 11.5179 96.9046 13.3767 98.26 13.8321V13.8857C97.2528 14.3303 96.9743 16.5963 98.3135 17.4107V17.4642C96.8511 17.9464 95.8867 18.8732 95.8867 20.475C95.8867 23.234 98.5011 24 100.789 24C103.574 24 105.648 22.9982 105.648 19.9285C105.648 16.1518 100.237 17.5447 100.237 15.4928C100.237 14.7697 100.622 14.4911 101.292 14.3517C103.515 13.9394 104.908 12.209 104.908 9.94825C104.908 9.55721 104.828 9.1875 104.694 8.82327C105.053 8.74287 105.401 8.6464 105.749 8.52859V5.82321C104.828 6.18749 103.837 6.45535 102.83 6.45535C99.9474 4.79465 96.0367 6.525 96.0367 10.1625ZM100.735 18.9375C101.646 18.9375 102.942 19.0982 102.942 20.2767C102.942 21.4447 101.898 21.6857 100.923 21.6857C99.9957 21.6857 98.6029 21.5411 98.6029 20.3357C98.6082 19.141 99.7867 18.9375 100.735 18.9375ZM100.564 12C99.3849 12 98.8867 11.3036 98.8867 10.1893C98.8867 7.54829 102.155 7.57506 102.155 10.1625C102.155 11.25 101.726 12 100.564 12ZM118.172 14.6517V17.2768C117.46 17.6677 116.539 17.8018 115.735 17.8018C112.869 17.8018 112.531 15.541 112.531 13.2108V8.51247H112.558V8.45899C112.183 8.45899 112.167 8.37317 111.272 8.51247V5.96789H112.558C112.558 4.77326 112.574 4.30713 112.478 3.76076H115.515C115.408 4.50007 115.435 5.23395 115.435 5.96789H118.167V8.51247C118.167 8.51247 117.133 8.45899 115.435 8.45899V13.3393C115.435 14.1322 115.612 15.0965 116.603 15.0965C117.128 15.0965 117.744 14.9465 118.172 14.6517ZM110.351 1.96613C110.351 2.96793 109.574 3.90539 108.54 3.90539C107.48 3.90539 106.692 2.984 106.692 1.96613C106.692 0.932195 107.469 0 108.54 0C109.601 0 110.351 0.964283 110.351 1.96613ZM110.019 5.95719C109.922 6.73928 109.933 16.6607 110.019 17.625H107.046C107.131 16.6554 107.142 6.75003 107.046 5.95719H110.019V5.95719Z" fill="#F05033"/>
<path d="M0 0L1.90723 21.5999L10.4716 24L19.0327 21.6014L20.9433 0H0V0Z" fill="#FF5722"/>
<path d="M16.8069 7.06336H6.7692L7.0086 9.77676H16.5678L15.8481 17.9128L10.4719 19.4173L10.4671 19.4189L5.09385 17.9128L4.71843 13.6573H7.35118L7.54729 15.8652L10.4687 16.6617L10.4719 16.6604L13.3965 15.8638L13.7016 12.4275H4.61074L3.90137 4.41602H17.0405L16.8069 7.06336Z" fill="#FCFCFC"/>
<path d="M30.9434 0L32.8506 21.5999L41.415 24L49.9761 21.6014L51.8867 0H30.9434V0Z" fill="#2299F8"/>
<path d="M47.8086 7.06336L47.5678 9.77676L46.8405 17.9115L41.4149 19.4159L41.4102 19.4173L35.9872 17.9115L35.609 13.6573H38.2657L38.4632 15.8638L41.4117 16.6617L41.4132 16.6604L44.3662 15.8623L44.7686 12.1858L35.4818 12.2114L35.2184 9.69731L44.9912 9.58165L45.189 6.89082L34.9567 6.91951L34.7847 4.41602H48.0447L47.8086 7.06336Z" fill="#FCFCFC"/>
<path d="M138.712 12.3438C138.685 12.3846 138.634 12.5134 138.563 12.7285C138.491 12.9451 138.403 13.2152 138.299 13.5449C138.196 13.8699 138.083 14.2357 137.963 14.6392L137.591 15.8764C137.45 16.2972 137.34 16.7086 137.214 17.1136L136.9 18.2095L136.665 19.0291L136.555 19.4216C136.508 19.5519 136.461 19.6964 136.382 19.8565C136.304 20.0135 136.209 20.1658 136.115 20.3087C136.005 20.45 135.895 20.5709 135.77 20.6651C135.644 20.7593 135.519 20.8064 135.377 20.8064C135.158 20.8064 135.001 20.7311 134.891 20.5866C134.781 20.4375 134.734 20.169 134.734 19.7765V19.4216C134.734 19.2913 134.796 19.0448 134.891 18.6868C134.985 18.3257 135.095 17.9206 135.236 17.4685C135.362 17.0132 135.519 16.5453 135.66 16.0601L136.084 14.7413C135.707 15.1495 135.315 15.5577 134.891 15.9502C134.467 16.3584 134.027 16.7196 133.587 17.0336C133.132 17.3476 132.677 17.6145 132.222 17.8186C131.766 18.0227 131.327 18.1169 130.903 18.1169C130.416 18.1169 130.008 18.007 129.662 17.7872C129.317 17.5674 129.019 17.3005 128.799 16.9551C128.579 16.6096 128.406 16.2171 128.296 15.7932C128.235 15.3866 128.172 14.947 128.172 14.523V14.366C128.172 14.3189 128.179 14.2671 128.188 14.2185C128.226 13.4334 128.337 12.6327 128.518 11.81C128.706 10.981 128.942 10.1614 129.24 9.34499C129.538 8.52856 129.884 7.72783 130.276 6.94908C130.684 6.20173 131.108 5.4638 131.564 4.77298C132.019 4.08215 132.509 3.43843 133.024 2.85751C133.542 2.27344 134.071 1.77103 134.616 1.35025C135.159 0.926335 135.709 0.596622 136.264 0.361113C136.814 0.125605 137.363 0 137.907 0C138.535 0 139.141 0.172706 139.728 0.513409C140.309 0.863532 140.858 1.41305 141.373 2.18238C141.49 2.35509 141.562 2.52779 141.593 2.70364C141.625 2.87635 141.64 3.04434 141.64 3.19821C141.64 3.5656 141.554 3.85763 141.378 4.06802C141.205 4.28783 141.001 4.38203 140.75 4.38203C140.53 4.38203 140.326 4.27213 140.138 4.03662C139.949 3.80111 139.73 3.4714 139.51 3.04748C139.29 2.65497 139.054 2.37236 138.788 2.19965C138.521 2.02695 138.238 1.94844 137.924 1.94844C137.437 1.94844 136.935 2.15255 136.385 2.56077C135.836 2.96898 135.302 3.4871 134.768 4.14652C134.234 4.80595 133.716 5.55958 133.23 6.40741C132.743 7.25524 132.303 8.11877 131.926 9.01371C131.55 9.90864 131.251 10.7722 131.031 11.6357C130.812 12.4992 130.702 13.2686 130.702 13.9594C130.702 14.1949 130.717 14.4304 130.749 14.6659C130.78 14.9171 130.843 15.1212 130.922 15.3253C131 15.5294 131.126 15.6865 131.283 15.8121C131.44 15.9377 131.628 16.0005 131.848 16.0005C132.099 16.0005 132.397 15.922 132.711 15.7493C133.041 15.5766 133.371 15.3567 133.716 15.0741C134.062 14.7915 134.423 14.4775 134.768 14.1321C135.114 13.7867 135.459 13.4256 135.757 13.0645C136.056 12.7033 136.338 12.3579 136.558 12.0282C136.794 11.6985 136.966 11.4159 137.092 11.1647L138.001 8.24281C138.117 7.93351 138.268 7.71213 138.461 7.58338C138.649 7.4515 138.842 7.38556 139.042 7.38556C139.136 7.38556 139.235 7.40126 139.332 7.43266C139.427 7.46406 139.518 7.5143 139.595 7.58338C139.673 7.64619 139.731 7.74039 139.777 7.85029C139.824 7.9602 139.855 8.0858 139.855 8.24281C139.855 8.63532 139.824 9.00586 139.761 9.34813C139.698 9.69354 139.604 10.0233 139.494 10.353C139.4 10.6748 139.274 11.003 139.149 11.3343C139.023 11.664 138.897 12.0094 138.772 12.3705L138.712 12.3438ZM151.748 14.7429C151.445 15.1511 151.092 15.5499 150.69 15.9361C150.287 16.3255 149.871 16.6709 149.444 16.9723C149.016 17.2738 148.596 17.5171 148.183 17.7008C147.768 17.8845 147.398 17.9756 147.068 17.9756C146.738 17.9756 146.467 17.8657 146.259 17.6459C146.052 17.4261 145.949 17.0493 145.949 16.5154C145.949 16.1386 146.005 15.699 146.115 15.1966C145.936 15.5106 145.711 15.8403 145.443 16.1543C145.176 16.484 144.867 16.7824 144.523 17.0493C144.178 17.3162 143.791 17.536 143.364 17.693C142.937 17.85 142.472 17.9442 141.967 17.9442C141.742 17.9442 141.523 17.9128 141.312 17.85C141.092 17.7872 140.904 17.693 140.747 17.5517C140.59 17.4104 140.464 17.222 140.354 16.9865C140.26 16.751 140.213 16.4526 140.213 16.1072L140.245 15.7304C140.276 15.4949 140.354 15.1024 140.511 14.5843C140.668 14.0662 140.888 13.391 141.202 12.5589C141.516 11.7268 141.94 10.7376 142.505 9.56009C142.647 9.24608 142.804 9.02627 143.008 8.88496C143.196 8.74366 143.4 8.68085 143.62 8.68085C143.714 8.68085 143.809 8.69655 143.918 8.72796C144.013 8.74366 144.107 8.79076 144.201 8.85356C144.295 8.91636 144.358 8.99487 144.421 9.08907C144.468 9.16757 144.499 9.27748 144.499 9.40308C144.499 9.48158 144.484 9.56009 144.468 9.62289C144.421 9.76419 144.358 9.9369 144.248 10.1567L143.84 10.9323C143.683 11.2149 143.526 11.5289 143.353 11.8618C143.181 12.1962 143.024 12.5526 142.882 12.9012C142.741 13.2623 142.615 13.6312 142.505 14.0002C142.396 14.377 142.333 14.7381 142.317 15.0836C142.317 15.2406 142.348 15.3662 142.411 15.4918C142.474 15.6174 142.6 15.6802 142.757 15.6802C143.196 15.6802 143.636 15.5389 144.044 15.2406C144.452 14.947 144.829 14.5811 145.175 14.1447C145.52 13.705 145.834 13.234 146.117 12.7316C146.399 12.2292 146.619 11.7739 146.807 11.3594C146.933 11.0815 147.059 10.7832 147.153 10.4644C147.247 10.1504 147.357 9.85212 147.483 9.58521C147.592 9.3183 147.734 9.08907 147.891 8.91008C148.032 8.7311 148.22 8.64317 148.456 8.64317C148.691 8.64317 148.896 8.73738 149.037 8.92578C149.178 9.11419 149.257 9.334 149.257 9.60091C149.257 9.74221 149.21 9.94632 149.115 10.1975C149.021 10.4487 148.911 10.7471 148.77 11.0768L148.315 12.1397C148.142 12.5165 148.001 12.8933 147.859 13.2858C147.718 13.6705 147.592 14.0552 147.498 14.4226C147.404 14.7994 147.357 15.1448 147.357 15.4588C147.357 15.7571 147.514 15.8984 147.812 15.8984C148.032 15.8984 148.299 15.8356 148.613 15.6786C148.927 15.5373 149.257 15.3332 149.602 15.0663C149.948 14.7994 150.293 14.4854 150.638 14.1242C150.984 13.7631 151.298 13.38 151.565 12.9624L151.675 14.6267L151.748 14.7429Z" fill="#CF4647"/>
<path d="M152.068 14.1306C151.993 14.319 151.919 14.5388 151.849 14.7868C151.775 15.0349 151.739 15.2579 151.739 15.4541C151.739 15.5766 151.759 15.6739 151.801 15.7477C151.842 15.8215 151.921 15.8576 152.037 15.8576C152.183 15.8576 152.363 15.8074 152.582 15.7053C152.798 15.6033 153.032 15.4698 153.284 15.3003C153.535 15.1338 153.799 14.9423 154.069 14.7256C154.342 14.5058 154.613 14.2703 154.882 14.0505C155.149 13.815 155.406 13.5795 155.651 13.344C155.896 13.1085 156.116 12.8886 156.311 12.7002C156.364 12.6374 156.428 12.606 156.505 12.5746C156.581 12.5432 156.647 12.5275 156.702 12.5275C156.843 12.5275 156.953 12.5746 157.047 12.7002C157.141 12.8101 157.188 12.9671 157.188 13.1556C157.188 13.3283 157.141 13.5167 157.047 13.7208C156.953 13.9249 156.78 14.129 156.545 14.3331C156.105 14.8041 155.665 15.2594 155.21 15.699C154.77 16.123 154.315 16.5155 153.875 16.8452C153.436 17.1749 152.996 17.4261 152.557 17.6302C152.117 17.8186 151.693 17.9128 151.285 17.9128C151.002 17.9128 150.767 17.8657 150.578 17.7715C150.39 17.6773 150.249 17.5517 150.123 17.3947C150.013 17.2377 149.935 17.0493 149.888 16.8452C149.84 16.6254 149.825 16.4056 149.825 16.1701C149.825 15.7618 149.872 15.3536 149.982 14.9297C150.092 14.5058 150.202 14.1133 150.343 13.7679C150.594 13.1242 150.83 12.4961 151.081 11.8681L151.772 10.141L154.894 2.27662C155.012 1.96261 155.177 1.73966 155.389 1.60149C155.603 1.47589 155.813 1.41309 156.028 1.41309C156.248 1.41309 156.436 1.47589 156.615 1.61719C156.788 1.75222 156.882 1.97831 156.882 2.28761C156.882 2.43362 156.851 2.58906 156.796 2.75235C156.733 2.90935 156.67 3.08834 156.576 3.27518C156.403 3.65513 156.199 4.12301 155.964 4.67881L155.179 6.50008C154.912 7.15165 154.629 7.83463 154.346 8.54115L153.499 10.6136C153.216 11.2856 152.965 11.9168 152.729 12.5197L152.117 14.0787L152.068 14.1306Z" fill="#CF4647"/>
<path d="M166.717 11.917C166.816 11.8495 166.906 11.7961 166.989 11.7553C167.071 11.7145 167.151 11.6925 167.224 11.6925C167.377 11.6925 167.491 11.7616 167.567 11.8966C167.645 12.0316 167.692 12.1949 167.692 12.3928C167.692 12.6047 167.645 12.8214 167.551 13.0412C167.457 13.261 167.331 13.4463 167.143 13.5907C166.405 14.2454 165.745 14.842 165.18 15.3806C164.599 15.9191 164.065 16.3823 163.547 16.7701C163.029 17.1626 162.527 17.4609 162.04 17.6807C161.553 17.9005 161.035 18.0104 160.47 18.0104C159.952 18.0104 159.544 17.9005 159.261 17.665C158.978 17.4452 158.837 17.1312 158.837 16.723V16.6288C158.837 16.6131 158.853 16.566 158.853 16.5346C158.884 16.2991 158.994 16.0165 159.183 15.6867C159.371 15.3727 159.591 15.043 159.858 14.6976C160.125 14.3522 160.407 14.0068 160.706 13.6614C161.004 13.316 161.271 12.9862 161.538 12.6722C161.789 12.3582 161.993 12.0756 162.166 11.8087C162.338 11.5575 162.417 11.3377 162.417 11.1807C162.417 11.0865 162.385 11.008 162.32 10.9452C162.246 10.8981 162.131 10.8667 161.974 10.8667C161.692 10.8667 161.409 10.9452 161.117 11.0865C160.819 11.2278 160.527 11.4319 160.238 11.6674C159.955 11.9186 159.672 12.1855 159.402 12.4995C159.132 12.8135 158.884 13.1432 158.633 13.473C158.398 13.8184 158.178 14.1481 157.974 14.4935C157.785 14.8389 157.612 15.1529 157.471 15.4355L157.298 15.8123L157.063 16.3776L156.78 17.0056L156.513 17.6179L156.294 18.136C156.231 18.293 156.184 18.3872 156.152 18.45C156.121 18.5285 156.074 18.6699 155.995 18.874L155.713 19.593L155.383 20.4566L155.069 21.3044L154.802 22.0235C154.724 22.2276 154.676 22.3658 154.661 22.4396C154.582 22.6437 154.504 22.8478 154.41 23.0362C154.315 23.2246 154.213 23.3863 154.092 23.5292C153.973 23.6705 153.835 23.7882 153.68 23.8746C153.522 23.9531 153.35 24.0002 153.161 24.0002C152.91 24.0002 152.706 23.9374 152.549 23.8244C152.392 23.7145 152.298 23.4789 152.298 23.1492C152.298 22.9922 152.314 22.8195 152.361 22.6468C152.392 22.4741 152.455 22.314 152.518 22.1444C152.565 21.9717 152.643 21.8147 152.706 21.6577C152.769 21.5007 152.832 21.3437 152.879 21.1929C153.24 20.3765 153.625 19.5601 154.009 18.7342C154.394 17.9084 154.763 17.1014 155.124 16.3006C155.479 15.4999 155.807 14.7149 156.113 13.9298C156.411 13.1605 156.663 12.4132 156.867 11.7004L157.087 11.0786C157.181 10.8117 157.291 10.5448 157.416 10.2936C157.542 10.0424 157.683 9.80687 157.84 9.61846C157.997 9.43006 158.17 9.33114 158.343 9.33114C158.625 9.33114 158.825 9.39394 158.949 9.51955C159.074 9.65771 159.137 9.83356 159.137 10.0848C159.137 10.1319 159.131 10.2104 159.117 10.3203C159.101 10.4302 159.085 10.5401 159.06 10.6578L158.993 10.9876C158.977 11.0975 158.945 11.176 158.93 11.2231C159.181 10.9467 159.464 10.6735 159.759 10.3988C160.057 10.1272 160.371 9.88066 160.685 9.66085C160.999 9.44105 161.329 9.25264 161.659 9.11918C161.988 8.97788 162.318 8.90723 162.648 8.90723C162.883 8.90723 163.103 8.93863 163.332 9.00143C163.552 9.06737 163.756 9.16315 163.929 9.29032C164.113 9.41593 164.255 9.57293 164.365 9.76134C164.475 9.94975 164.53 10.1743 164.53 10.427C164.53 10.7615 164.442 11.1179 164.279 11.4947C164.106 11.8778 163.902 12.264 163.642 12.6408C163.39 13.0271 163.112 13.4007 162.816 13.7634C162.517 14.1245 162.25 14.4542 161.984 14.7526L161.324 15.5219C161.151 15.726 161.057 15.8673 161.054 15.9458C161.054 16.04 161.085 16.1185 161.148 16.1813C161.211 16.2441 161.321 16.2755 161.462 16.2755C161.585 16.2755 161.757 16.2049 161.98 16.0714C162.213 15.9301 162.53 15.7103 162.938 15.3869C163.346 15.0571 163.874 14.6332 164.503 14.0837C165.132 13.5405 165.917 12.8591 166.838 12.0316L166.717 11.917Z" fill="#CF4647"/>
<path d="M73.8867 24C80.5141 24 85.8867 18.6274 85.8867 12C85.8867 5.37258 80.5141 0 73.8867 0C67.2593 0 61.8867 5.37258 61.8867 12C61.8867 18.6274 67.2593 24 73.8867 24Z" fill="#CC6699"/>
<path d="M80.3426 6.6719C80.1986 6.0959 79.7906 5.6159 79.1666 5.2799C77.9426 4.6319 75.9746 4.60791 74.1746 5.25591C73.0946 5.63991 71.0546 6.5039 69.5186 7.9199C67.9826 9.3599 67.7426 10.6319 67.8626 11.1359C68.1266 12.5279 69.5906 13.5119 70.7426 14.3279C71.0546 14.5439 71.3426 14.7359 71.5586 14.9279C70.9106 15.2639 69.1586 16.2479 68.6786 17.2799C68.3186 18.0959 68.4866 18.6959 68.6306 18.9599C68.7746 19.2719 69.0146 19.5119 69.2546 19.5839C69.4946 19.6559 69.7586 19.6799 70.0226 19.6799C71.0546 19.6799 72.0626 19.1279 72.6866 18.1919C73.3106 17.2559 73.3586 16.0079 73.0706 15.2399C73.4786 15.1439 73.9106 15.1439 74.3906 15.1919C75.3266 15.3119 75.7826 15.6719 75.9986 15.9599C76.2386 16.2719 76.2866 16.5839 76.2626 16.7759C76.2146 17.1359 75.9266 17.3519 75.7826 17.4479C75.6626 17.5199 75.5666 17.5919 75.5906 17.7359C75.6386 17.9279 75.8306 17.9039 75.9026 17.9039C76.1186 17.8559 76.8866 17.4719 76.9346 16.6079C76.9586 16.0799 76.7426 15.5519 76.3346 15.1199C75.8066 14.5679 75.0146 14.2799 74.1026 14.3039C73.4306 14.3039 72.9746 14.3759 72.6146 14.4959L72.5906 14.4719C72.2546 14.1119 71.7986 13.7759 71.3906 13.4399C70.4306 12.7199 69.5426 12.0239 69.5906 10.9919C69.6626 9.6959 70.9346 8.4239 73.4066 7.1999C75.5906 6.1199 77.3666 6.0719 78.3026 6.4079C78.6866 6.55191 78.9506 6.7439 79.0466 6.9599C79.2386 7.3679 79.1666 7.8959 78.8306 8.4719C78.2786 9.4319 76.8866 10.6319 74.7506 10.8719C73.4546 11.0159 72.9026 10.4399 72.8786 10.4159C72.7346 10.2479 72.6386 10.1519 72.4706 10.2479C72.2786 10.3439 72.3746 10.6079 72.4226 10.7039C72.5186 10.9679 72.9266 11.4239 73.6226 11.6639C74.1746 11.8559 75.5906 11.9759 77.3426 11.3039C79.3586 10.4879 80.7506 8.3279 80.3426 6.6719ZM72.0626 16.8959C72.0386 16.9439 72.0386 16.9919 72.0146 17.0399C71.9906 17.0879 71.9666 17.1359 71.9666 17.1839C71.8706 17.3999 71.7266 17.6159 71.5346 17.8079C70.9826 18.4079 70.2386 18.5759 69.9986 18.4319C69.9266 18.3839 69.9026 18.3119 69.8786 18.2159C69.8306 17.9279 69.9986 17.3519 70.5026 16.8479C71.1026 16.2239 71.9426 15.7679 72.1346 15.6719C72.2066 16.1039 72.1826 16.5119 72.0626 16.8959Z" fill="white"/>
</svg>
