<svg width="239" height="24" viewBox="0 0 239 24" fill="none" xmlns="http://www.w3.org/2000/svg">
<path d="M167.009 10.1625C167.009 11.5179 167.877 13.3767 169.233 13.8321V13.8857C168.226 14.3303 167.947 16.5963 169.286 17.4107V17.4642C167.824 17.9464 166.859 18.8732 166.859 20.475C166.859 23.234 169.474 24 171.761 24C174.547 24 176.62 22.9982 176.62 19.9285C176.62 16.1518 171.209 17.5447 171.209 15.4928C171.209 14.7697 171.595 14.4911 172.265 14.3517C174.488 13.9394 175.881 12.209 175.881 9.94825C175.881 9.55721 175.8 9.1875 175.667 8.82327C176.026 8.74287 176.374 8.6464 176.722 8.52859V5.82321C175.801 6.18749 174.809 6.45535 173.802 6.45535C170.92 4.79465 167.009 6.525 167.009 10.1625ZM171.708 18.9375C172.618 18.9375 173.915 19.0982 173.915 20.2767C173.915 21.4447 172.87 21.6857 171.895 21.6857C170.968 21.6857 169.576 21.5411 169.576 20.3357C169.581 19.141 170.759 18.9375 171.708 18.9375ZM171.536 12C170.358 12 169.859 11.3036 169.859 10.1893C169.859 7.54829 173.127 7.57506 173.127 10.1625C173.127 11.25 172.699 12 171.536 12ZM189.145 14.6517V17.2768C188.433 17.6677 187.511 17.8018 186.708 17.8018C183.841 17.8018 183.504 15.541 183.504 13.2108V8.51247H183.531V8.45899C183.156 8.45899 183.14 8.37317 182.245 8.51247V5.96789H183.531C183.531 4.77326 183.547 4.30713 183.45 3.76076H186.488C186.381 4.50007 186.408 5.23395 186.408 5.96789H189.14V8.51247C189.14 8.51247 188.106 8.45899 186.408 8.45899V13.3393C186.408 14.1322 186.584 15.0965 187.576 15.0965C188.1 15.0965 188.716 14.9465 189.145 14.6517ZM181.324 1.96613C181.324 2.96793 180.547 3.90539 179.513 3.90539C178.452 3.90539 177.665 2.984 177.665 1.96613C177.665 0.932195 178.442 0 179.513 0C180.574 0 181.324 0.964283 181.324 1.96613ZM180.992 5.95719C180.895 6.73928 180.906 16.6607 180.992 17.625H178.018C178.104 16.6554 178.115 6.75003 178.018 5.95719H180.992V5.95719Z" fill="#F05033"/>
<path d="M70.9727 0L72.8799 21.5999L81.4443 24L90.0054 21.6014L91.916 0H70.9727V0Z" fill="#FF5722"/>
<path d="M87.7796 7.06336H77.7419L77.9813 9.77676H87.5404L86.8208 17.9128L81.4445 19.4173L81.4398 19.4189L76.0665 17.9128L75.6911 13.6573H78.3238L78.5199 15.8652L81.4414 16.6617L81.4446 16.6604L84.3692 15.8638L84.6742 12.4275H75.5834L74.874 4.41602H88.0132L87.7796 7.06336Z" fill="#FCFCFC"/>
<path d="M101.916 0L103.823 21.5999L112.388 24L120.949 21.6014L122.859 0H101.916V0Z" fill="#2299F8"/>
<path d="M118.781 7.06336L118.54 9.77676L117.813 17.9115L112.388 19.4159L112.383 19.4173L106.96 17.9115L106.582 13.6573H109.238L109.436 15.8638L112.384 16.6617L112.386 16.6604L115.339 15.8623L115.741 12.1858L106.454 12.2114L106.191 9.69731L115.964 9.58165L116.162 6.89082L105.929 6.91951L105.757 4.41602H119.017L118.781 7.06336Z" fill="#FCFCFC"/>
<path d="M209.685 12.3438C209.658 12.3846 209.606 12.5134 209.536 12.7285C209.463 12.9451 209.376 13.2152 209.272 13.5449C209.168 13.8699 209.055 14.2357 208.936 14.6392L208.564 15.8764C208.422 16.2972 208.313 16.7086 208.187 17.1136L207.873 18.2095L207.637 19.0291L207.528 19.4216C207.48 19.5519 207.433 19.6964 207.355 19.8565C207.276 20.0135 207.182 20.1658 207.088 20.3087C206.978 20.45 206.868 20.5709 206.743 20.6651C206.617 20.7593 206.491 20.8064 206.35 20.8064C206.13 20.8064 205.973 20.7311 205.863 20.5866C205.753 20.4375 205.706 20.169 205.706 19.7765V19.4216C205.706 19.2913 205.769 19.0448 205.863 18.6868C205.958 18.3257 206.067 17.9206 206.209 17.4685C206.334 17.0132 206.491 16.5453 206.633 16.0601L207.057 14.7413C206.68 15.1495 206.287 15.5577 205.863 15.9502C205.439 16.3584 205 16.7196 204.56 17.0336C204.105 17.3476 203.65 17.6145 203.194 17.8186C202.739 18.0227 202.299 18.1169 201.875 18.1169C201.389 18.1169 200.98 18.007 200.635 17.7872C200.29 17.5674 199.991 17.3005 199.771 16.9551C199.552 16.6096 199.379 16.2171 199.269 15.7932C199.208 15.3866 199.145 14.947 199.145 14.523V14.366C199.145 14.3189 199.151 14.2671 199.161 14.2185C199.198 13.4334 199.31 12.6327 199.49 11.81C199.679 10.981 199.914 10.1614 200.213 9.34499C200.511 8.52856 200.856 7.72783 201.249 6.94908C201.657 6.20173 202.081 5.4638 202.536 4.77298C202.992 4.08215 203.482 3.43843 203.997 2.85751C204.515 2.27344 205.044 1.77103 205.589 1.35025C206.132 0.926335 206.681 0.596622 207.237 0.361113C207.787 0.125605 208.336 0 208.879 0C209.507 0 210.113 0.172706 210.701 0.513409C211.282 0.863532 211.831 1.41305 212.346 2.18238C212.462 2.35509 212.534 2.52779 212.566 2.70364C212.597 2.87635 212.613 3.04434 212.613 3.19821C212.613 3.5656 212.527 3.85763 212.351 4.06802C212.178 4.28783 211.974 4.38203 211.723 4.38203C211.503 4.38203 211.299 4.27213 211.11 4.03662C210.922 3.80111 210.702 3.4714 210.482 3.04748C210.263 2.65497 210.027 2.37236 209.76 2.19965C209.493 2.02695 209.211 1.94844 208.897 1.94844C208.41 1.94844 207.908 2.15255 207.358 2.56077C206.808 2.96898 206.275 3.4871 205.741 4.14652C205.207 4.80595 204.689 5.55958 204.202 6.40741C203.715 7.25524 203.276 8.11877 202.899 9.01371C202.522 9.90864 202.224 10.7722 202.004 11.6357C201.784 12.4992 201.674 13.2686 201.674 13.9594C201.674 14.1949 201.69 14.4304 201.721 14.6659C201.753 14.9171 201.816 15.1212 201.894 15.3253C201.973 15.5294 202.098 15.6865 202.255 15.8121C202.412 15.9377 202.601 16.0005 202.821 16.0005C203.072 16.0005 203.37 15.922 203.684 15.7493C204.014 15.5766 204.343 15.3567 204.689 15.0741C205.034 14.7915 205.395 14.4775 205.741 14.1321C206.086 13.7867 206.432 13.4256 206.73 13.0645C207.028 12.7033 207.311 12.3579 207.531 12.0282C207.766 11.6985 207.939 11.4159 208.065 11.1647L208.974 8.24281C209.09 7.93351 209.24 7.71213 209.434 7.58338C209.622 7.4515 209.815 7.38556 210.015 7.38556C210.109 7.38556 210.208 7.40126 210.305 7.43266C210.399 7.46406 210.49 7.5143 210.567 7.58338C210.646 7.64619 210.704 7.74039 210.749 7.85029C210.796 7.9602 210.828 8.0858 210.828 8.24281C210.828 8.63532 210.796 9.00586 210.734 9.34813C210.671 9.69354 210.577 10.0233 210.467 10.353C210.373 10.6748 210.247 11.003 210.121 11.3343C209.996 11.664 209.87 12.0094 209.744 12.3705L209.685 12.3438ZM222.721 14.7429C222.418 15.1511 222.065 15.5499 221.663 15.9361C221.259 16.3255 220.843 16.6709 220.416 16.9723C219.989 17.2738 219.568 17.5171 219.155 17.7008C218.741 17.8845 218.37 17.9756 218.041 17.9756C217.711 17.9756 217.439 17.8657 217.232 17.6459C217.025 17.4261 216.921 17.0493 216.921 16.5154C216.921 16.1386 216.978 15.699 217.088 15.1966C216.909 15.5106 216.684 15.8403 216.416 16.1543C216.149 16.484 215.839 16.7824 215.496 17.0493C215.15 17.3162 214.764 17.536 214.337 17.693C213.91 17.85 213.445 17.9442 212.94 17.9442C212.715 17.9442 212.495 17.9128 212.285 17.85C212.065 17.7872 211.877 17.693 211.72 17.5517C211.563 17.4104 211.437 17.222 211.327 16.9865C211.233 16.751 211.186 16.4526 211.186 16.1072L211.217 15.7304C211.249 15.4949 211.327 15.1024 211.484 14.5843C211.641 14.0662 211.861 13.391 212.175 12.5589C212.489 11.7268 212.913 10.7376 213.478 9.56009C213.619 9.24608 213.776 9.02627 213.981 8.88496C214.169 8.74366 214.373 8.68085 214.593 8.68085C214.687 8.68085 214.781 8.69655 214.891 8.72796C214.985 8.74366 215.08 8.79076 215.174 8.85356C215.268 8.91636 215.331 8.99487 215.394 9.08907C215.441 9.16757 215.472 9.27748 215.472 9.40308C215.472 9.48158 215.456 9.56009 215.441 9.62289C215.394 9.76419 215.331 9.9369 215.221 10.1567L214.813 10.9323C214.656 11.2149 214.499 11.5289 214.326 11.8618C214.153 12.1962 213.996 12.5526 213.855 12.9012C213.714 13.2623 213.588 13.6312 213.478 14.0002C213.368 14.377 213.305 14.7381 213.29 15.0836C213.29 15.2406 213.321 15.3662 213.384 15.4918C213.447 15.6174 213.572 15.6802 213.729 15.6802C214.169 15.6802 214.609 15.5389 215.017 15.2406C215.425 14.947 215.802 14.5811 216.147 14.1447C216.493 13.705 216.807 13.234 217.089 12.7316C217.372 12.2292 217.592 11.7739 217.78 11.3594C217.906 11.0815 218.031 10.7832 218.125 10.4644C218.22 10.1504 218.33 9.85212 218.455 9.58521C218.565 9.3183 218.706 9.08907 218.863 8.91008C219.005 8.7311 219.193 8.64317 219.429 8.64317C219.664 8.64317 219.868 8.73738 220.01 8.92578C220.151 9.11419 220.229 9.334 220.229 9.60091C220.229 9.74221 220.182 9.94632 220.088 10.1975C219.994 10.4487 219.884 10.7471 219.743 11.0768L219.287 12.1397C219.115 12.5165 218.973 12.8933 218.832 13.2858C218.691 13.6705 218.565 14.0552 218.471 14.4226C218.377 14.7994 218.33 15.1448 218.33 15.4588C218.33 15.7571 218.487 15.8984 218.785 15.8984C219.005 15.8984 219.272 15.8356 219.586 15.6786C219.9 15.5373 220.229 15.3332 220.575 15.0663C220.92 14.7994 221.266 14.4854 221.611 14.1242C221.956 13.7631 222.27 13.38 222.537 12.9624L222.647 14.6267L222.721 14.7429Z" fill="#CF4647"/>
<path d="M223.041 14.1306C222.966 14.319 222.892 14.5388 222.821 14.7868C222.747 15.0349 222.711 15.2579 222.711 15.4541C222.711 15.5766 222.732 15.6739 222.774 15.7477C222.815 15.8215 222.893 15.8576 223.01 15.8576C223.156 15.8576 223.336 15.8074 223.554 15.7053C223.771 15.6033 224.005 15.4698 224.256 15.3003C224.507 15.1338 224.771 14.9423 225.041 14.7256C225.314 14.5058 225.586 14.2703 225.855 14.0505C226.121 13.815 226.379 13.5795 226.624 13.344C226.869 13.1085 227.089 12.8886 227.283 12.7002C227.337 12.6374 227.401 12.606 227.478 12.5746C227.553 12.5432 227.619 12.5275 227.674 12.5275C227.816 12.5275 227.925 12.5746 228.02 12.7002C228.114 12.8101 228.161 12.9671 228.161 13.1556C228.161 13.3283 228.114 13.5167 228.02 13.7208C227.925 13.9249 227.753 14.129 227.517 14.3331C227.078 14.8041 226.638 15.2594 226.183 15.699C225.743 16.123 225.288 16.5155 224.848 16.8452C224.408 17.1749 223.969 17.4261 223.529 17.6302C223.09 17.8186 222.666 17.9128 222.258 17.9128C221.975 17.9128 221.739 17.8657 221.551 17.7715C221.363 17.6773 221.221 17.5517 221.096 17.3947C220.986 17.2377 220.907 17.0493 220.86 16.8452C220.813 16.6254 220.797 16.4056 220.797 16.1701C220.797 15.7618 220.844 15.3536 220.954 14.9297C221.064 14.5058 221.174 14.1133 221.315 13.7679C221.567 13.1242 221.802 12.4961 222.053 11.8681L222.744 10.141L225.867 2.27662C225.985 1.96261 226.15 1.73966 226.362 1.60149C226.575 1.47589 226.786 1.41309 227.001 1.41309C227.22 1.41309 227.409 1.47589 227.588 1.61719C227.761 1.75222 227.855 1.97831 227.855 2.28761C227.855 2.43362 227.823 2.58906 227.768 2.75235C227.706 2.90935 227.643 3.08834 227.549 3.27518C227.376 3.65513 227.172 4.12301 226.936 4.67881L226.151 6.50008C225.884 7.15165 225.602 7.83463 225.319 8.54115L224.471 10.6136C224.189 11.2856 223.937 11.9168 223.702 12.5197L223.09 14.0787L223.041 14.1306Z" fill="#CF4647"/>
<path d="M237.69 11.917C237.789 11.8495 237.878 11.7961 237.962 11.7553C238.043 11.7145 238.123 11.6925 238.197 11.6925C238.349 11.6925 238.464 11.7616 238.539 11.8966C238.618 12.0316 238.665 12.1949 238.665 12.3928C238.665 12.6047 238.618 12.8214 238.524 13.0412C238.429 13.261 238.304 13.4463 238.115 13.5907C237.377 14.2454 236.718 14.842 236.153 15.3806C235.572 15.9191 235.038 16.3823 234.52 16.7701C234.002 17.1626 233.499 17.4609 233.013 17.6807C232.526 17.9005 232.008 18.0104 231.443 18.0104C230.925 18.0104 230.516 17.9005 230.234 17.665C229.951 17.4452 229.81 17.1312 229.81 16.723V16.6288C229.81 16.6131 229.826 16.566 229.826 16.5346C229.857 16.2991 229.967 16.0165 230.155 15.6867C230.344 15.3727 230.563 15.043 230.83 14.6976C231.097 14.3522 231.38 14.0068 231.678 13.6614C231.976 13.316 232.243 12.9862 232.51 12.6722C232.762 12.3582 232.966 12.0756 233.138 11.8087C233.311 11.5575 233.39 11.3377 233.39 11.1807C233.39 11.0865 233.358 11.008 233.292 10.9452C233.218 10.8981 233.104 10.8667 232.947 10.8667C232.664 10.8667 232.382 10.9452 232.09 11.0865C231.791 11.2278 231.499 11.4319 231.21 11.6674C230.928 11.9186 230.645 12.1855 230.375 12.4995C230.105 12.8135 229.857 13.1432 229.606 13.473C229.37 13.8184 229.15 14.1481 228.946 14.4935C228.758 14.8389 228.585 15.1529 228.444 15.4355L228.271 15.8123L228.036 16.3776L227.753 17.0056L227.486 17.6179L227.266 18.136C227.204 18.293 227.156 18.3872 227.125 18.45C227.094 18.5285 227.046 18.6699 226.968 18.874L226.685 19.593L226.356 20.4566L226.042 21.3044L225.775 22.0235C225.696 22.2276 225.649 22.3658 225.633 22.4396C225.555 22.6437 225.476 22.8478 225.382 23.0362C225.288 23.2246 225.186 23.3863 225.065 23.5292C224.946 23.6705 224.808 23.7882 224.652 23.8746C224.495 23.9531 224.322 24.0002 224.134 24.0002C223.883 24.0002 223.679 23.9374 223.522 23.8244C223.365 23.7145 223.271 23.4789 223.271 23.1492C223.271 22.9922 223.286 22.8195 223.333 22.6468C223.365 22.4741 223.428 22.314 223.49 22.1444C223.537 21.9717 223.616 21.8147 223.679 21.6577C223.742 21.5007 223.804 21.3437 223.851 21.1929C224.213 20.3765 224.597 19.5601 224.982 18.7342C225.367 17.9084 225.735 17.1014 226.097 16.3006C226.451 15.4999 226.78 14.7149 227.086 13.9298C227.384 13.1605 227.635 12.4132 227.839 11.7004L228.059 11.0786C228.153 10.8117 228.263 10.5448 228.389 10.2936C228.515 10.0424 228.656 9.80687 228.813 9.61846C228.97 9.43006 229.143 9.33114 229.315 9.33114C229.598 9.33114 229.797 9.39394 229.921 9.51955C230.047 9.65771 230.11 9.83356 230.11 10.0848C230.11 10.1319 230.103 10.2104 230.089 10.3203C230.074 10.4302 230.058 10.5401 230.033 10.6578L229.965 10.9876C229.95 11.0975 229.918 11.176 229.902 11.2231C230.154 10.9467 230.436 10.6735 230.731 10.3988C231.03 10.1272 231.344 9.88066 231.658 9.66085C231.972 9.44105 232.301 9.25264 232.631 9.11918C232.961 8.97788 233.291 8.90723 233.62 8.90723C233.856 8.90723 234.076 8.93863 234.305 9.00143C234.525 9.06737 234.729 9.16315 234.902 9.29032C235.085 9.41593 235.228 9.57293 235.338 9.76134C235.448 9.94975 235.503 10.1743 235.503 10.427C235.503 10.7615 235.415 11.1179 235.252 11.4947C235.079 11.8778 234.875 12.264 234.614 12.6408C234.363 13.0271 234.085 13.4007 233.788 13.7634C233.49 14.1245 233.223 14.4542 232.956 14.7526L232.297 15.5219C232.124 15.726 232.03 15.8673 232.027 15.9458C232.027 16.04 232.058 16.1185 232.121 16.1813C232.184 16.2441 232.294 16.2755 232.435 16.2755C232.557 16.2755 232.73 16.2049 232.953 16.0714C233.185 15.9301 233.503 15.7103 233.911 15.3869C234.319 15.0571 234.847 14.6332 235.476 14.0837C236.104 13.5405 236.889 12.8591 237.811 12.0316L237.69 11.917Z" fill="#CF4647"/>
<path d="M60.9727 0H36.9727V24H60.9727V0Z" fill="#F7DF1E"/>
<path d="M53.0947 18.7502C53.5781 19.5395 54.207 20.1197 55.3194 20.1197C56.2539 20.1197 56.8508 19.6526 56.8508 19.0073C56.8508 18.234 56.2375 17.9601 55.2089 17.5102L54.6451 17.2683C53.0177 16.5749 51.9366 15.7064 51.9366 13.8702C51.9366 12.1787 53.2253 10.8911 55.2394 10.8911C56.6733 10.8911 57.7042 11.3902 58.447 12.6968L56.6908 13.8244C56.3042 13.1311 55.887 12.858 55.2394 12.858C54.5788 12.858 54.1602 13.277 54.1602 13.8244C54.1602 14.501 54.5792 14.7749 55.5468 15.194L56.1107 15.4355C58.0268 16.2572 59.1088 17.0949 59.1088 18.9784C59.1088 21.0088 57.5137 22.1212 55.3716 22.1212C53.2771 22.1212 51.924 21.1231 51.2619 19.8149L53.0947 18.7502ZM45.1278 18.9456C45.4821 19.5742 45.8044 20.1056 46.5792 20.1056C47.3202 20.1056 47.7876 19.8157 47.7876 18.6884V11.0199H50.0428V18.7189C50.0428 21.0542 48.6737 22.117 46.6752 22.117C44.8695 22.117 43.8238 21.1825 43.292 20.057L45.1278 18.9456Z" fill="black"/>
<path d="M144.859 24C151.487 24 156.859 18.6274 156.859 12C156.859 5.37258 151.487 0 144.859 0C138.232 0 132.859 5.37258 132.859 12C132.859 18.6274 138.232 24 144.859 24Z" fill="#CC6699"/>
<path d="M151.315 6.6719C151.171 6.0959 150.763 5.6159 150.139 5.2799C148.915 4.6319 146.947 4.60791 145.147 5.25591C144.067 5.63991 142.027 6.5039 140.491 7.9199C138.955 9.3599 138.715 10.6319 138.835 11.1359C139.099 12.5279 140.563 13.5119 141.715 14.3279C142.027 14.5439 142.315 14.7359 142.531 14.9279C141.883 15.2639 140.131 16.2479 139.651 17.2799C139.291 18.0959 139.459 18.6959 139.603 18.9599C139.747 19.2719 139.987 19.5119 140.227 19.5839C140.467 19.6559 140.731 19.6799 140.995 19.6799C142.027 19.6799 143.035 19.1279 143.659 18.1919C144.283 17.2559 144.331 16.0079 144.043 15.2399C144.451 15.1439 144.883 15.1439 145.363 15.1919C146.299 15.3119 146.755 15.6719 146.971 15.9599C147.211 16.2719 147.259 16.5839 147.235 16.7759C147.187 17.1359 146.899 17.3519 146.755 17.4479C146.635 17.5199 146.539 17.5919 146.563 17.7359C146.611 17.9279 146.803 17.9039 146.875 17.9039C147.091 17.8559 147.859 17.4719 147.907 16.6079C147.931 16.0799 147.715 15.5519 147.307 15.1199C146.779 14.5679 145.987 14.2799 145.075 14.3039C144.403 14.3039 143.947 14.3759 143.587 14.4959L143.563 14.4719C143.227 14.1119 142.771 13.7759 142.363 13.4399C141.403 12.7199 140.515 12.0239 140.563 10.9919C140.635 9.6959 141.907 8.4239 144.379 7.1999C146.563 6.1199 148.339 6.0719 149.275 6.4079C149.659 6.55191 149.923 6.7439 150.019 6.9599C150.211 7.3679 150.139 7.8959 149.803 8.4719C149.251 9.4319 147.859 10.6319 145.723 10.8719C144.427 11.0159 143.875 10.4399 143.851 10.4159C143.707 10.2479 143.611 10.1519 143.443 10.2479C143.251 10.3439 143.347 10.6079 143.395 10.7039C143.491 10.9679 143.899 11.4239 144.595 11.6639C145.147 11.8559 146.563 11.9759 148.315 11.3039C150.331 10.4879 151.723 8.3279 151.315 6.6719ZM143.035 16.8959C143.011 16.9439 143.011 16.9919 142.987 17.0399C142.963 17.0879 142.939 17.1359 142.939 17.1839C142.843 17.3999 142.699 17.6159 142.507 17.8079C141.955 18.4079 141.211 18.5759 140.971 18.4319C140.899 18.3839 140.875 18.3119 140.851 18.2159C140.803 17.9279 140.971 17.3519 141.475 16.8479C142.075 16.2239 142.915 15.7679 143.107 15.6719C143.179 16.1039 143.155 16.5119 143.035 16.8959Z" fill="white"/>
<path d="M13.4815 14.3833C12.1504 14.3833 11.0713 13.3042 11.0713 11.9731C11.0713 10.642 12.1504 9.56299 13.4815 9.56299C14.8125 9.56299 15.8916 10.642 15.8916 11.9731C15.8916 13.3042 14.8125 14.3833 13.4815 14.3833Z" fill="#00D8FF"/>
<path d="M13.4816 17.4945C16.8664 17.4945 19.8238 17.096 22.0371 16.3374C23.4727 15.8477 24.6921 15.1948 25.5611 14.4506C26.4829 13.6632 26.9727 12.8038 26.9727 11.9732C26.9727 10.3793 25.2251 8.81892 22.2916 7.80109C19.8911 6.9657 16.7608 6.5 13.4864 6.5C10.2697 6.5 7.1826 6.9513 4.79646 7.77709C3.39935 8.2572 2.22308 8.88134 1.38769 9.57269C0.480289 10.3313 0.000183098 11.1618 0.000183098 11.9732C0.000183098 13.6296 1.95422 15.3052 5.10373 16.347C7.33143 17.0864 10.3081 17.4945 13.4816 17.4945ZM13.4816 7.65226C16.5879 7.65226 19.6606 8.10356 21.9075 8.88614C24.6057 9.82715 25.8156 11.1138 25.8156 11.9732C25.8156 12.8662 24.5145 14.2729 21.6627 15.2476C19.5694 15.9629 16.7368 16.3422 13.4816 16.3422C10.4281 16.3422 7.58109 15.9581 5.46381 15.2524C2.50155 14.2681 1.14764 12.8614 1.14764 11.9732C1.14764 11.5171 1.49332 10.9794 2.12226 10.4561C2.84722 9.85115 3.90346 9.29903 5.16615 8.86213C7.43706 8.08436 10.3897 7.65226 13.4816 7.65226Z" fill="#00D8FF"/>
<path d="M18.9501 23.9856C19.4398 23.9856 19.8719 23.88 20.2368 23.6687C21.6147 22.8718 22.0948 20.5768 21.5139 17.5281C21.0385 15.0268 19.8767 12.0885 18.2395 9.25109C16.6312 6.46646 14.7011 4.01791 12.7951 2.36153C11.6812 1.39172 10.553 0.681156 9.53515 0.306672C8.4261 -0.10142 7.46589 -0.10142 6.76493 0.301871C5.3294 1.12766 4.8541 3.66263 5.52625 6.90816C6.00155 9.21268 7.13461 11.9925 8.71897 14.7435C10.4089 17.6722 12.2334 20.0343 13.9954 21.5755C15.138 22.5741 16.3143 23.3039 17.3897 23.6831C17.9514 23.8848 18.4796 23.9856 18.9501 23.9856ZM17.745 9.53915L17.2457 9.82722C18.7964 12.5158 19.9439 15.4013 20.3856 17.7442C20.9185 20.5528 20.4048 22.2428 19.6654 22.6701C19.483 22.7757 19.2429 22.8333 18.9501 22.8333C17.9947 22.8333 16.4919 22.2284 14.7539 20.7113C13.088 19.2565 11.3452 16.9904 9.71759 14.1722C8.19085 11.5268 7.1058 8.867 6.6545 6.68251C6.02556 3.62422 6.56808 1.7518 7.34106 1.3053C7.73475 1.07965 8.37329 1.10845 9.14146 1.39172C10.0297 1.71819 11.0331 2.35673 12.0413 3.23533C13.8513 4.81009 15.6997 7.15301 17.2457 9.83202L17.745 9.53915Z" fill="#00D8FF"/>
<path d="M8.01334 24.0002C9.31923 24.0002 10.9756 23.2129 12.704 21.7245C14.634 20.0633 16.5977 17.5908 18.2396 14.7533C19.8528 11.9687 21.0051 9.07366 21.49 6.5915C21.7732 5.14158 21.826 3.81168 21.6436 2.74104C21.442 1.57438 20.9667 0.743788 20.2609 0.335696C18.8302 -0.494891 16.396 0.359701 13.9187 2.5634C12.1615 4.12375 10.3179 6.49548 8.7287 9.2417C7.03392 12.1704 5.89606 14.931 5.44476 17.2259C5.15189 18.7142 5.10388 20.0969 5.31033 21.2204C5.53118 22.4159 6.03049 23.2657 6.75065 23.6834C7.11073 23.8946 7.53803 24.0002 8.01334 24.0002ZM17.241 14.1772C15.6855 16.8658 13.7554 19.3 11.9502 20.8507C9.78493 22.7135 8.06615 23.1168 7.32198 22.6847C6.54901 22.2382 5.98248 20.409 6.56821 17.4516C7.00031 15.2815 8.09015 12.6409 9.72252 9.82263C11.2541 7.17724 13.0161 4.90633 14.682 3.42759C17.0154 1.35353 18.907 0.88782 19.68 1.33432C20.0737 1.55997 20.3665 2.1313 20.5057 2.93788C20.6642 3.86929 20.6162 5.05996 20.3569 6.37065C19.896 8.72799 18.7918 11.4982 17.241 14.1772Z" fill="#00D8FF"/>
</svg>
