<svg width="96" height="127" viewBox="0 0 96 127" fill="none" xmlns="http://www.w3.org/2000/svg">
<path d="M35.6626 43.7441C34.6352 43.7441 33.8022 44.5771 33.8022 45.6045V47.5928C33.8022 48.6202 34.6352 49.4532 35.6626 49.4532C36.69 49.4532 37.5229 48.6202 37.5229 47.5928V45.6045C37.5229 44.5771 36.69 43.7441 35.6626 43.7441Z" fill="white"/>
<path d="M59.5229 43.7441C58.4953 43.7441 57.6626 44.5771 57.6626 45.6045V47.5928C57.6626 48.6202 58.4953 49.4532 59.5229 49.4532C60.5506 49.4532 61.3833 48.6202 61.3833 47.5928V45.6045C61.3833 44.5771 60.5506 43.7441 59.5229 43.7441Z" fill="white"/>
<path d="M54.8823 58.2168C54.1608 57.4856 52.9833 57.4774 52.2515 58.1992C51.5726 58.8692 49.945 59.6515 47.593 59.6515C45.241 59.6515 43.6136 58.8692 42.9344 58.1992C42.2029 57.4774 41.0249 57.4856 40.3036 58.2168C39.5821 58.9483 39.59 60.126 40.3212 60.8476C41.9234 62.4284 44.6417 63.372 47.593 63.372C50.544 63.372 53.2623 62.4282 54.8647 60.8476C55.5957 60.126 55.6039 58.9481 54.8823 58.2168Z" fill="white"/>
<path d="M85.985 96.7157L83.2554 95.7523V35.6627C83.2552 15.9983 67.2572 0 47.5928 0C27.9283 0 11.9301 15.9983 11.9301 35.6627V50.9069C11.9301 65.122 16.5839 75.6843 20.4879 82.042C22.8607 85.9061 25.2316 88.7147 26.8967 90.4701L9.2008 96.7157C3.69739 98.6579 0 103.884 0 109.72V125.14C0 126.167 0.832941 127 1.86035 127C2.88776 127 3.7207 126.167 3.7207 125.14V109.72C3.7207 108.482 3.95015 107.282 4.37207 106.166L13.7793 114.23C15.1316 115.389 15.907 117.075 15.907 118.856V125.14C15.907 126.167 16.7399 127 17.7674 127C18.7948 127 19.6277 126.167 19.6277 125.14V118.856C19.6277 115.987 18.3785 113.272 16.2007 111.405L6.33958 102.952C7.43669 101.743 8.83196 100.791 10.4393 100.224L18.2952 97.4514C23.1577 109.237 34.7484 117.058 47.593 117.058C54.6594 117.058 61.4774 114.71 67.0178 110.407C69.5442 114.801 71.5816 119.295 71.5816 125.14C71.5816 126.167 72.4143 127 73.442 127C74.4696 127 75.3023 126.167 75.3023 125.14C75.3023 116.864 71.759 111.004 68.3319 105.338C64.7586 99.4296 61.3834 93.8488 61.3834 85.372V83.3837C61.3834 82.3563 60.5507 81.5233 59.5231 81.5233C58.4954 81.5233 57.6627 82.3563 57.6627 83.3837V85.372C57.6627 91.2882 59.1344 95.9582 61.1321 100.108C57.4303 103.517 52.6594 105.384 47.5928 105.384C39.6734 105.384 32.5259 100.693 29.3263 93.5578L30.9751 92.9759C34.8915 91.5935 37.5228 87.8746 37.5228 83.7215V77.3839C40.6457 78.6063 44.042 79.2788 47.5928 79.2788C61.561 79.2788 73.1542 68.8804 75.0347 55.4184H76.1402C77.3586 55.4184 78.5182 55.113 79.535 54.5785V125.14C79.535 126.167 80.3677 127 81.3953 127C82.423 127 83.2557 126.167 83.2557 125.14V112.645L90.8137 106.166C91.2359 107.282 91.4651 108.482 91.4651 109.72V125.14C91.4651 126.167 92.2977 127 93.3254 127C94.3531 127 95.1858 126.167 95.1858 125.14V109.72C95.1858 103.884 91.4884 98.6579 85.985 96.7157ZM47.5928 109.105C53.2728 109.105 58.6393 107.125 62.9176 103.494C63.628 104.747 64.3649 105.969 65.0979 107.181C60.1449 111.16 53.9844 113.338 47.5928 113.338C36.3208 113.338 26.1446 106.513 21.81 96.2109L25.8103 94.7991C29.5421 103.418 38.0988 109.105 47.5928 109.105ZM33.8023 83.7215H33.8021C33.8021 85.9396 32.5914 87.9557 30.7057 89.023C27.6297 86.0604 17.0173 74.4748 15.7723 54.7261C16.695 55.1753 17.716 55.4184 18.7613 55.4184H20.1498C21.3541 64.0482 26.5482 71.4177 33.8023 75.5972V83.7215ZM79.5181 48.9143C79.3619 50.4751 77.878 51.6977 76.1402 51.6977H75.3011V51.5888C75.3011 50.5616 74.4686 49.7287 73.4415 49.7284C73.4412 49.7284 73.441 49.7284 73.4407 49.7284C72.4138 49.7284 71.5811 50.5604 71.5804 51.5876C71.5705 64.805 60.8097 75.5583 47.5928 75.5583C34.3654 75.5583 23.6041 64.797 23.6041 51.5699C23.6041 50.5425 22.7712 49.7096 21.7438 49.7096C20.7164 49.7096 19.8834 50.5425 19.8834 51.5699V51.6979H18.7613C17.8839 51.6979 17.0431 51.3244 16.4537 50.6732C15.8566 50.0134 15.5773 49.1564 15.6671 48.26C15.8237 46.6993 17.3075 45.4767 19.0455 45.4767H19.7552H19.7554C21.8455 45.4767 23.8108 44.6626 25.2886 43.1847C26.7667 41.7068 27.5808 39.7416 27.5808 37.6513V35.6629C27.5808 33.0974 28.7591 30.7404 30.8136 29.1969C31.6352 28.5797 31.8006 27.4134 31.1835 26.5921C30.5663 25.7708 29.4 25.6051 28.5787 26.2223C25.5801 28.4753 23.8604 31.9164 23.8604 35.6629V37.6513C23.8604 38.7477 23.4335 39.7785 22.6581 40.5539C21.8829 41.3291 20.8521 41.7562 19.7557 41.7562H19.0458C17.8271 41.7562 16.6675 42.0616 15.6508 42.5963V35.6632C15.6508 25.8199 20.1273 17.0039 27.15 11.1398C31.5699 20.9379 38.1072 29.3214 46.1556 35.4838C54.5723 41.9281 64.2627 45.4772 73.4417 45.4772H76.424C77.3013 45.4772 78.1425 45.8505 78.7318 46.5018C79.3286 47.1609 79.6079 48.0179 79.5181 48.9143ZM79.5345 42.5073C78.5805 42.0194 77.5151 41.756 76.4237 41.756H73.4417C65.0756 41.756 56.1886 38.4793 48.4173 32.5291C40.6574 26.5877 34.3855 18.4284 30.2161 8.87388C35.2207 5.61628 41.1892 3.7207 47.5928 3.7207C65.2058 3.7207 79.5347 18.0499 79.5347 35.6627V42.5073H79.5345ZM83.2552 107.744V99.698L84.7465 100.224C86.3536 100.792 87.7488 101.743 88.8459 102.953L83.2552 107.744Z" fill="white"/>
</svg>
