<svg width="36" height="36" viewBox="0 0 36 36" fill="none" xmlns="http://www.w3.org/2000/svg">
<path d="M35.6114 0.333252H0.388672V35.6666H35.6114V0.333252Z" fill="#F7DF1E"/>
<path d="M24.0496 27.9375C24.7591 29.0995 25.6821 29.9537 27.3147 29.9537C28.6861 29.9537 29.5622 29.2661 29.5622 28.316C29.5622 27.1775 28.6621 26.7743 27.1525 26.1119L26.3251 25.7558C23.9366 24.735 22.3499 23.4563 22.3499 20.753C22.3499 18.2628 24.2413 16.3672 27.1972 16.3672C29.3017 16.3672 30.8146 17.1019 31.9048 19.0256L29.3274 20.6857C28.7599 19.665 28.1477 19.2628 27.1972 19.2628C26.2278 19.2628 25.6133 19.8798 25.6133 20.6857C25.6133 21.6818 26.2283 22.085 27.6484 22.7019L28.4759 23.0575C31.2881 24.2673 32.8759 25.5006 32.8759 28.2734C32.8759 31.2627 30.535 32.9004 27.3913 32.9004C24.3174 32.9004 22.3315 31.431 21.3598 29.505L24.0496 27.9375ZM12.3573 28.2252C12.8772 29.1506 13.3502 29.9329 14.4874 29.9329C15.5749 29.9329 16.2609 29.5061 16.2609 27.8466V16.5568H19.5707V27.8915C19.5707 31.3295 17.5613 32.8942 14.6283 32.8942C11.9782 32.8942 10.4435 31.5185 9.66302 29.8614L12.3573 28.2252Z" fill="black"/>
</svg>
