<svg width="40" height="31" viewBox="0 0 40 31" fill="none" xmlns="http://www.w3.org/2000/svg">
<path fill-rule="evenodd" clip-rule="evenodd" d="M28.5106 1.8889C28.5106 0.948836 29.2727 0.186768 30.2128 0.186768H32.766C33.706 0.186768 34.4681 0.948836 34.4681 1.8889C34.4681 2.0358 34.4495 2.17837 34.4145 2.31435H35.3191C37.9043 2.31435 40 4.41004 40 6.9952V8.69738V24.8676V25.7186C40 28.3038 37.9043 30.3995 35.3191 30.3995H4.68085C2.09569 30.3995 0 28.3038 0 25.7186V24.8676V8.69738V6.9952C0 4.41004 2.09569 2.31435 4.68085 2.31435H28.5642C28.5293 2.17837 28.5106 2.0358 28.5106 1.8889ZM37.4468 6.9952V8.69738H30.7411C29.6221 7.13102 28.1691 5.81971 26.486 4.86755H35.3191C36.4942 4.86755 37.4468 5.82013 37.4468 6.9952ZM13.514 4.86755C11.8309 5.81971 10.3778 7.13102 9.25885 8.69738H2.55319V6.9952C2.55319 5.82013 3.50578 4.86755 4.68085 4.86755H13.514ZM7.83324 11.2506H2.55319V22.3144H8.22714C7.31982 20.5249 6.8085 18.5007 6.8085 16.357C6.8085 14.5465 7.17324 12.8212 7.83324 11.2506ZM9.92064 24.8676H2.55319V25.7186C2.55319 26.8937 3.50578 27.8463 4.68085 27.8463H13.5135C12.1452 27.0721 10.929 26.0606 9.92064 24.8676ZM26.4864 27.8463H35.3191C36.4942 27.8463 37.4468 26.8937 37.4468 25.7186V24.8676H30.0793C29.071 26.0606 27.8548 27.0721 26.4864 27.8463ZM31.7728 22.3144H37.4468V11.2506H32.1667C32.8267 12.8212 33.1915 14.5465 33.1915 16.357C33.1915 18.5007 32.6802 20.5249 31.7728 22.3144ZM9.3617 16.357C9.3617 10.4817 14.1246 5.71874 20 5.71874C25.8754 5.71874 30.6383 10.4817 30.6383 16.357C30.6383 22.2324 25.8754 26.9953 20 26.9953C14.1246 26.9953 9.3617 22.2324 9.3617 16.357ZM11.6915 16.3571C11.6915 11.7684 15.4113 8.04857 20 8.04857C24.5887 8.04857 28.3085 11.7684 28.3085 16.3571C28.3085 20.9457 24.5887 24.6656 20 24.6656C15.4113 24.6656 11.6915 20.9457 11.6915 16.3571ZM20 11.0486C17.0682 11.0486 14.6915 13.4253 14.6915 16.3571C14.6915 19.2889 17.0682 21.6656 20 21.6656C22.9318 21.6656 25.3085 19.2889 25.3085 16.3571C25.3085 13.4253 22.9318 11.0486 20 11.0486Z" fill="#8787FF"/>
</svg>
