<svg width="59" height="69" viewBox="0 0 59 69" fill="none" xmlns="http://www.w3.org/2000/svg">
<path d="M52.9 23.4C52 23.4 51.0999 23.6 50.2999 24C49.2999 22.1 47.2999 20.8 45.0999 20.8C44.1999 20.8 43.3 21 42.5 21.4C41.5 19.5 39.4999 18.2 37.2999 18.2C36.5999 18.2 36 18.3 35.4 18.5V11.1C35.4 7.90005 32.8 5.30005 29.6 5.30005C26.4 5.30005 23.8 7.90005 23.8 11.1V40.3L17.6 37.2001C16.4 36.6001 15.1 36.3 13.8 36.3C10.7 36.3 8.19995 38.8001 8.19995 41.9001C8.19995 43.4001 8.79995 44.8001 9.79995 45.9001L26.5 62.6C30.4 66.5 35.5999 68.6 41.0999 68.6C50.6999 68.6 58.5 60.8001 58.5 51.2001V29.2001C58.7 26.0001 56.1 23.4 52.9 23.4ZM33.5 37.7001C34.6 37.7001 35.4 36.8 35.4 35.8V24.1C35.4 23 36.2999 22.2001 37.2999 22.2001C38.3999 22.2001 39.2 23.1 39.2 24.1V35.7001C39.2 36.8001 40.0999 37.6 41.0999 37.6C42.1999 37.6 43 36.7001 43 35.7001V26.7001C43 25.6001 43.9 24.8 44.9 24.8C46 24.8 46.7999 25.7001 46.7999 26.7001V35.7001C46.7999 36.8001 47.7 37.6 48.7 37.6C49.8 37.6 50.5999 36.7001 50.5999 35.7001V29.2001C50.5999 28.1001 51.5 27.3 52.5 27.3C53.6 27.3 54.4 28.2001 54.4 29.2001V51.2001C54.4 58.7001 48.2999 64.8001 40.7999 64.8001C36.2999 64.8001 32.1 63.1001 28.9 59.9001L12.7 43.2001C12.4 42.9001 12.2 42.5 12.2 42C12.2 41.1 13 40.3 13.9 40.3C14.6 40.3 15.3 40.5 15.9 40.8L24.9 45.3C25.5 45.6 26.1999 45.6001 26.7999 45.2001C27.3999 44.8001 27.7 44.2 27.7 43.5V11.2C27.7 10.1 28.6 9.30005 29.6 9.30005C30.6 9.30005 31.5 10.2 31.5 11.2V35.7001C31.6 36.8001 32.5 37.7001 33.5 37.7001Z" fill="white"/>
<path d="M11.6999 18.6999L7.7999 22.5999L3.8999 18.6999C2.9999 17.7999 1.5999 17.7999 0.699902 18.6999C-0.200098 19.5999 -0.200098 20.9999 0.699902 21.8999L6.1999 27.4999C6.6999 27.9999 7.1999 28.0999 7.7999 28.0999C8.3999 28.0999 8.9999 27.8999 9.3999 27.4999L14.8999 21.8999C15.7999 20.9999 15.7999 19.5999 14.8999 18.6999C13.9999 17.7999 12.5999 17.7999 11.6999 18.6999Z" fill="white"/>
<path d="M3.8999 9.4L7.7999 5.5L11.6999 9.4C12.5999 10.3 13.9999 10.3 14.8999 9.4C15.7999 8.5 15.7999 7.1 14.8999 6.2L9.3999 0.6C8.8999 0.2 8.2999 0 7.7999 0C7.2999 0 6.5999 0.2 6.1999 0.6L0.699902 6.2C-0.200098 7.1 -0.200098 8.5 0.699902 9.4C1.4999 10.3 2.9999 10.3 3.8999 9.4Z" fill="white"/>
</svg>
