<svg width="86" height="24" viewBox="0 0 86 24" fill="none" xmlns="http://www.w3.org/2000/svg">
<path d="M24 0H0V24H24V0Z" fill="#F7DF1E"/>
<path d="M16.122 18.7502C16.6054 19.5395 17.2344 20.1197 18.3468 20.1197C19.2812 20.1197 19.8782 19.6526 19.8782 19.0073C19.8782 18.234 19.2649 17.9601 18.2363 17.5102L17.6725 17.2683C16.045 16.5749 14.9639 15.7064 14.9639 13.8702C14.9639 12.1787 16.2527 10.8911 18.2668 10.8911C19.7007 10.8911 20.7315 11.3902 21.4744 12.6968L19.7182 13.8244C19.3315 13.1311 18.9144 12.858 18.2668 12.858C17.6062 12.858 17.1875 13.277 17.1875 13.8244C17.1875 14.501 17.6066 14.7749 18.5742 15.194L19.138 15.4355C21.0542 16.2572 22.1361 17.0949 22.1361 18.9783C22.1361 21.0088 20.541 22.1212 18.399 22.1212C16.3045 22.1212 14.9513 21.1231 14.2892 19.8149L16.122 18.7502ZM8.15515 18.9456C8.50943 19.5742 8.83172 20.1056 9.60657 20.1056C10.3475 20.1056 10.815 19.8157 10.815 18.6884V11.0199H13.0702V18.7189C13.0702 21.0542 11.701 22.117 9.70257 22.117C7.89686 22.117 6.85115 21.1825 6.31934 20.057L8.15515 18.9456Z" fill="black"/>
<path d="M34 0L35.9072 21.5999L44.4716 24L53.0327 21.6014L54.9433 0H34V0Z" fill="#FF5722"/>
<path d="M50.8069 7.06336H40.7692L41.0086 9.77676H50.5678L49.8481 17.9128L44.4719 19.4173L44.4671 19.4189L39.0939 17.9128L38.7184 13.6573H41.3512L41.5473 15.8652L44.4687 16.6617L44.4719 16.6604L47.3965 15.8638L47.7016 12.4275H38.6107L37.9014 4.41602H51.0405L50.8069 7.06336Z" fill="#FCFCFC"/>
<path d="M64.9434 0L66.8506 21.5999L75.415 24L83.9761 21.6014L85.8867 0H64.9434V0Z" fill="#2299F8"/>
<path d="M81.8086 7.06336L81.5678 9.77676L80.8405 17.9115L75.4149 19.4159L75.4102 19.4173L69.9872 17.9115L69.609 13.6573H72.2657L72.4632 15.8638L75.4117 16.6617L75.4132 16.6604L78.3662 15.8623L78.7686 12.1858L69.4818 12.2114L69.2184 9.69731L78.9912 9.58165L79.189 6.89082L68.9567 6.91951L68.7847 4.41602H82.0447L81.8086 7.06336Z" fill="#FCFCFC"/>
</svg>
