<svg width="44" height="42" viewBox="0 0 44 42" fill="none" xmlns="http://www.w3.org/2000/svg">
<path d="M11.9793 15.8858C10.4629 15.8858 9.00127 15.4309 7.75268 14.5704C5.67837 13.1431 4.43958 10.7725 4.43958 8.22937C4.43958 4.00857 7.82174 0.574707 11.9793 0.574707C16.1364 0.574707 19.5181 4.00857 19.5181 8.22937C19.5181 12.4515 16.1359 15.8858 11.9793 15.8858ZM11.9793 3.24881C9.29626 3.24881 7.11323 5.48309 7.11323 8.22982C7.11323 9.89239 7.91933 11.44 9.26908 12.3691C10.0698 12.9212 11.007 13.2126 11.9793 13.2126C14.6618 13.2126 16.8444 10.9774 16.8444 8.22982C16.8444 5.48309 14.6618 3.24881 11.9793 3.24881Z" fill="#8787FF"/>
<path d="M12.0002 41.1868C11.801 41.1868 11.6014 41.1423 11.4174 41.0531L0.835945 35.9282C0.460743 35.7464 0.192041 35.4001 0.108712 34.992C0.0614773 34.7598 -0.32442 32.6654 0.716076 30.7186C1.42237 29.3991 2.65002 28.491 3.42003 28.0182C3.43206 27.9558 3.44543 27.8939 3.46058 27.8328C3.55193 27.4679 3.77117 27.1296 3.98907 26.865C4.06572 26.4973 4.23594 26.0299 4.58441 25.4818C5.09775 24.6743 5.70199 24.231 6.04689 24.0255C6.17701 23.8513 6.57672 23.1829 6.57672 21.5515V19.6171C6.40917 19.5525 6.21845 19.4781 6.00545 19.3939C4.65882 18.8605 4.03185 17.7251 3.96501 17.5976C3.88124 17.4377 3.83044 17.2625 3.81618 17.0825C3.80236 16.9083 3.71057 15.3393 4.73636 13.8648C5.3415 12.9936 6.14181 12.3176 6.70595 11.9041C7.30217 11.4678 8.13814 11.5975 8.57439 12.1919C9.01064 12.7873 8.88186 13.6241 8.28652 14.0604C7.959 14.3006 7.34718 14.7925 6.93098 15.391C6.63733 15.8125 6.53483 16.2688 6.49919 16.5652C6.61059 16.6832 6.77636 16.8232 6.99025 16.9078C7.87255 17.2581 8.34891 17.4247 8.35381 17.4265C8.89032 17.6137 9.25038 18.1203 9.25038 18.6889V21.5515C9.25038 24.9194 7.87701 26.0268 7.60162 26.2148C7.51607 26.2732 7.49601 26.2915 7.39932 26.3284C7.40288 26.3284 7.10789 26.4951 6.84008 26.9162C6.67253 27.18 6.62128 27.3435 6.60747 27.4001C6.62084 27.7811 6.47022 28.1532 6.1886 28.4188C6.14047 28.4651 6.0772 28.5351 6.03353 28.589C6.01704 28.6973 6.00456 28.8337 6.00055 28.9174C5.97604 29.4089 5.68417 29.8492 5.2399 30.0604C4.81479 30.2663 3.58758 31.0167 3.07335 31.9788C2.72934 32.6222 2.66695 33.3477 2.67675 33.8476L12.0002 38.3639L21.3224 33.8476C21.3317 33.349 21.2698 32.6231 20.9244 31.9783C20.4049 31.0073 19.1549 30.2493 18.7583 30.0604C18.3127 29.8479 18.02 29.4067 17.9977 28.9139C17.9937 28.8314 17.9816 28.6973 17.9656 28.5895C17.9179 28.5302 17.8479 28.4544 17.8096 28.4179C17.528 28.1523 17.3774 27.7798 17.3912 27.3988C17.3774 27.3422 17.3261 27.1791 17.159 26.9162C16.8837 26.4831 16.5789 26.3191 16.5659 26.3124C16.4764 26.2785 16.4973 26.2812 16.4167 26.2282C16.0254 25.972 14.7492 24.8771 14.7492 21.5515V18.6889C14.7492 18.1208 15.1092 17.6141 15.6453 17.4265C15.6502 17.4252 16.1261 17.2581 17.0075 16.9083C17.2201 16.824 17.3872 16.6823 17.4995 16.5634C17.4643 16.2711 17.3613 15.8134 17.0672 15.391C16.672 14.8228 16.0954 14.3478 15.787 14.1156C15.1975 13.6714 15.0798 12.8332 15.5241 12.2436C15.9679 11.6537 16.8066 11.5369 17.3961 11.9803C17.9286 12.3818 18.6848 13.0341 19.2623 13.8643C20.2881 15.3388 20.1968 16.9078 20.1825 17.0816C20.1687 17.2616 20.1174 17.4368 20.0341 17.5967C19.9673 17.7246 19.3407 18.86 17.9928 19.3939C17.7802 19.4781 17.5904 19.5521 17.4233 19.6167V21.5511C17.4233 23.1945 17.8185 23.8526 17.9433 24.0197C18.2873 24.2234 18.8974 24.6668 19.4156 25.4809C19.7645 26.029 19.9343 26.4964 20.0109 26.8641C20.2284 27.1283 20.4472 27.4647 20.539 27.8279C20.5541 27.8899 20.5679 27.9536 20.5804 28.0169C21.3504 28.4901 22.5772 29.3978 23.283 30.7168C24.3249 32.6637 23.9385 34.7585 23.8909 34.9911C23.8071 35.3993 23.5388 35.7446 23.1636 35.9269L12.5835 41.0536C12.399 41.1427 12.1999 41.1868 12.0002 41.1868Z" fill="#8787FF"/>
<path d="M11.9953 32.545C5.47652 32.545 3.53946 29.8291 3.34027 29.5194L5.58837 28.072L5.5643 28.0364C5.57812 28.0546 6.98669 29.8714 11.9953 29.8714C17.0031 29.8714 18.4121 28.0546 18.4259 28.0364L19.5257 28.7957L20.6495 29.5194C20.4503 29.8291 18.5132 32.545 11.9953 32.545Z" fill="#8787FF"/>
<path d="M11.9793 27.403C9.62914 27.403 7.62123 27.0515 6.0108 26.3585L7.06779 23.9023C8.34223 24.4509 9.99454 24.7289 11.9793 24.7289C13.8196 24.7289 15.3811 24.4879 16.6199 24.0129L17.5779 26.5092C16.0321 27.1023 14.1481 27.403 11.9793 27.403Z" fill="#8787FF"/>
<path d="M11.9793 20.4212C9.53912 20.4212 7.53121 20.0892 6.01079 19.435C5.33258 19.1432 5.01931 18.3567 5.31119 17.6785C5.60306 17.0007 6.38911 16.687 7.06777 16.9793C7.88235 17.33 9.39563 17.7475 11.9793 17.7475C13.9212 17.7475 15.4826 17.5261 16.6194 17.0889C17.3083 16.8238 18.0819 17.1682 18.3466 17.8571C18.6117 18.5461 18.2677 19.3196 17.5783 19.5848C16.1341 20.1395 14.2505 20.4212 11.9793 20.4212Z" fill="#8787FF"/>
<rect x="28.1416" y="9.69824" width="16.096" height="16.096" rx="4" transform="rotate(30.7743 28.1416 9.69824)" stroke="#8787FF" stroke-width="2.5"/>
<circle cx="29.9059" cy="16.3939" r="1.32726" transform="rotate(30.7743 29.9059 16.3939)" fill="#8787FF"/>
<circle cx="26.7389" cy="21.7174" r="1.32726" transform="rotate(30.7743 26.7389 21.7174)" fill="#8787FF"/>
<circle cx="31.9318" cy="24.7157" r="1.32726" transform="rotate(30.7743 31.9318 24.7157)" fill="#8787FF"/>
<circle cx="35.301" cy="19.5089" r="1.32726" transform="rotate(30.7743 35.301 19.5089)" fill="#8787FF"/>
<circle cx="30.9479" cy="20.5045" r="1.32726" transform="rotate(30.7743 30.9479 20.5045)" fill="#8787FF"/>
</svg>
