<svg width="42" height="34" viewBox="0 0 42 34" fill="none" xmlns="http://www.w3.org/2000/svg">
<path d="M2.1356 6.83062C2.21082 6.82803 3.75568 6.77588 6.02343 6.82599V2.17644C6.02343 1.49103 6.60868 0.947429 7.29778 1.00406C11.8195 1.38154 17.5723 3.37958 21.0001 7.02388C24.4278 3.37958 30.1807 1.38154 34.7024 1.00406C35.3902 0.948056 35.9767 1.48923 35.9767 2.17644V6.95172C37.2652 6.90309 38.4839 6.86882 39.7886 6.83046C40.4467 6.80968 41 7.33972 41 8.00638V29.4314C41 30.0505 40.5202 30.5637 39.9025 30.6052C35.2227 30.9202 27.3836 30.9556 21.4616 33.4814C20.9338 33.7068 20.46 33.4479 20.5384 33.4814C14.6166 30.9557 6.77888 30.9203 2.09749 30.6052C1.47984 30.5637 1 30.0505 1 29.4314V8.00638C1.00016 7.37258 1.50219 6.85274 2.1356 6.83062ZM8.37637 3.49965V23.6633C11.769 24.4222 16.0685 26.0417 19.8236 29.4755C19.8236 28.4398 19.8236 9.8132 19.8236 9.25304C17.2495 6.04129 12.3745 4.10546 8.37637 3.49965ZM33.6238 3.49965C29.6256 4.10546 24.7507 6.04129 22.1765 9.25304V29.4755C25.9317 26.0417 30.2312 24.4222 33.6238 23.6633V3.49965ZM38.6471 28.3243V9.21798C37.8046 9.24292 36.9036 9.27108 35.9767 9.30645V24.6222C35.9767 25.1883 35.5736 25.6741 35.0173 25.7785C32.3309 26.2827 28.8376 27.3771 25.5818 29.7337C30.2269 28.6919 35.089 28.5244 38.6471 28.3243ZM3.35309 28.3243C6.90539 28.5241 11.7715 28.6914 16.4185 29.7337C13.1626 27.3771 9.66922 26.2827 6.98296 25.7785C6.42665 25.6741 6.02351 25.1883 6.02351 24.6222V9.17971C4.94069 9.15547 4.01842 9.15516 3.35317 9.1612V28.3243H3.35309Z" fill="#8787FF" stroke="#8787FF" stroke-width="0.2"/>
<path d="M25.227 11.9631C26.1382 11.3283 27.7091 10.5491 29.3855 10.2658C30.0259 10.1571 30.6333 10.5891 30.7416 11.2298C30.8498 11.8704 30.4182 12.4775 29.7775 12.5858C28.4832 12.8045 27.2418 13.427 26.572 13.8937C26.039 14.265 25.3057 14.1341 24.9342 13.6009C24.5628 13.0678 24.6939 12.3345 25.227 11.9631Z" fill="#8787FF" stroke="#8787FF" stroke-width="0.2"/>
<path d="M25.3448 18.5883C26.1831 18.0763 27.8229 17.178 29.3855 16.9139C30.0259 16.8054 30.6333 17.2372 30.7416 17.8779C30.8498 18.5186 30.4182 19.1257 29.7775 19.2339C28.5602 19.4396 27.1297 20.2552 26.5712 20.5963C26.016 20.9352 25.2922 20.7594 24.954 20.2055C24.6153 19.651 24.7903 18.927 25.3448 18.5883Z" fill="#8787FF" stroke="#8787FF" stroke-width="0.2"/>
<path d="M15.4282 13.8935C14.7584 13.4268 13.517 12.8043 12.2226 12.5856C11.582 12.4773 11.1504 11.8702 11.2585 11.2296C11.3668 10.5889 11.9742 10.1566 12.6146 10.2656C14.2911 10.5488 15.862 11.3281 16.7732 11.9629C17.3063 12.3343 17.4373 13.0676 17.066 13.6007C16.6944 14.1341 15.9608 14.2646 15.4282 13.8935Z" fill="#8787FF" stroke="#8787FF" stroke-width="0.2"/>
<path d="M12.6146 16.914C14.1773 17.178 15.817 18.0764 16.6554 18.5884C17.2099 18.927 17.3849 19.6511 17.0462 20.2056C16.7075 20.76 15.9835 20.935 15.4289 20.5964C14.8704 20.2553 13.4399 19.4397 12.2226 19.234C11.582 19.1258 11.1504 18.5187 11.2585 17.878C11.3668 17.2373 11.9741 16.8051 12.6146 16.914Z" fill="#8787FF" stroke="#8787FF" stroke-width="0.2"/>
<path d="M6.36 8H2V29.8589C6.16 30.0256 16.632 30.5 21.24 32.5C24.28 31.5 33.088 29.6 40 30V8H35.64" stroke="#8787FF" stroke-width="2.5" stroke-linejoin="round"/>
</svg>
