<svg width="40" height="43" viewBox="0 0 40 43" fill="none" xmlns="http://www.w3.org/2000/svg">
<path d="M10.8214 11.2096V30.3339C9.21063 30.303 7.42258 30.5884 5.86963 31.191C3.76457 32.0079 1.5 33.6799 1.5 36.5157C1.5 38.5879 2.77347 39.9807 4.33335 40.7212C5.84103 41.437 7.72133 41.6238 9.49194 41.4258C11.2713 41.2268 13.12 40.6195 14.5646 39.5531C16.0348 38.4678 17.1504 36.8433 17.1504 34.7235V16.9619L31.9252 12.8064V21.6218C30.2921 21.5783 28.4817 21.8414 26.9082 22.429C24.7894 23.2202 22.5087 24.8655 22.5087 27.7134C22.5087 29.8495 23.7611 31.2933 25.3742 32.0556C26.9136 32.7831 28.8275 32.9387 30.615 32.7155C32.4143 32.4908 34.2721 31.8598 35.7214 30.8129C37.1811 29.7585 38.3494 28.1748 38.3494 26.1099V3.66343C38.3494 2.9292 37.9821 2.24468 37.3794 1.84621C36.781 1.45057 36.0113 1.37957 35.3189 1.70825L12.3365 9.1217L12.3364 9.12166L12.3262 9.12506C11.4006 9.43101 10.8214 10.3072 10.8214 11.2096Z" stroke="#8787FF" stroke-width="3" stroke-linejoin="round"/>
</svg>
