<svg width="92" height="24" viewBox="0 0 92 24" fill="none" xmlns="http://www.w3.org/2000/svg">
<path d="M80 24C86.6274 24 92 18.6274 92 12C92 5.37258 86.6274 0 80 0C73.3726 0 68 5.37258 68 12C68 18.6274 73.3726 24 80 24Z" fill="#CC6699"/>
<path d="M86.4559 6.6719C86.3119 6.0959 85.9039 5.6159 85.2799 5.2799C84.0559 4.6319 82.0879 4.60791 80.2879 5.25591C79.2079 5.63991 77.1679 6.5039 75.6319 7.9199C74.0959 9.3599 73.8559 10.6319 73.9759 11.1359C74.2399 12.5279 75.7039 13.5119 76.8559 14.3279C77.1679 14.5439 77.4559 14.7359 77.6719 14.9279C77.0239 15.2639 75.2719 16.2479 74.7919 17.2799C74.4319 18.0959 74.5999 18.6959 74.7439 18.9599C74.8879 19.2719 75.1279 19.5119 75.3679 19.5839C75.6079 19.6559 75.8719 19.6799 76.1359 19.6799C77.1679 19.6799 78.1759 19.1279 78.7999 18.1919C79.4239 17.2559 79.4719 16.0079 79.1839 15.2399C79.5919 15.1439 80.0239 15.1439 80.5039 15.1919C81.4399 15.3119 81.8959 15.6719 82.1119 15.9599C82.3519 16.2719 82.3999 16.5839 82.3759 16.7759C82.3279 17.1359 82.0399 17.3519 81.8959 17.4479C81.7759 17.5199 81.6799 17.5919 81.7039 17.7359C81.7519 17.9279 81.9439 17.9039 82.0159 17.9039C82.2319 17.8559 82.9999 17.4719 83.0479 16.6079C83.0719 16.0799 82.8559 15.5519 82.4479 15.1199C81.9199 14.5679 81.1279 14.2799 80.2159 14.3039C79.5439 14.3039 79.0879 14.3759 78.7279 14.4959L78.7039 14.4719C78.3679 14.1119 77.9119 13.7759 77.5039 13.4399C76.5439 12.7199 75.6559 12.0239 75.7039 10.9919C75.7759 9.6959 77.0479 8.4239 79.5199 7.1999C81.7039 6.1199 83.4799 6.0719 84.4159 6.4079C84.7999 6.55191 85.0639 6.7439 85.1599 6.9599C85.3519 7.3679 85.2799 7.8959 84.9439 8.4719C84.3919 9.4319 82.9999 10.6319 80.8639 10.8719C79.5679 11.0159 79.0159 10.4399 78.9919 10.4159C78.8479 10.2479 78.7519 10.1519 78.5839 10.2479C78.3919 10.3439 78.4879 10.6079 78.5359 10.7039C78.6319 10.9679 79.0399 11.4239 79.7359 11.6639C80.2879 11.8559 81.7039 11.9759 83.4559 11.3039C85.4719 10.4879 86.8639 8.3279 86.4559 6.6719ZM78.1759 16.8959C78.1519 16.9439 78.1519 16.9919 78.1279 17.0399C78.1039 17.0879 78.0799 17.1359 78.0799 17.1839C77.9839 17.3999 77.8399 17.6159 77.6479 17.8079C77.0959 18.4079 76.3519 18.5759 76.1119 18.4319C76.0399 18.3839 76.0159 18.3119 75.9919 18.2159C75.9439 17.9279 76.1119 17.3519 76.6159 16.8479C77.2159 16.2239 78.0559 15.7679 78.2479 15.6719C78.3199 16.1039 78.2959 16.5119 78.1759 16.8959Z" fill="white"/>
<path d="M13.4815 14.3833C12.1504 14.3833 11.0713 13.3042 11.0713 11.9731C11.0713 10.642 12.1504 9.56299 13.4815 9.56299C14.8125 9.56299 15.8916 10.642 15.8916 11.9731C15.8916 13.3042 14.8125 14.3833 13.4815 14.3833Z" fill="#00D8FF"/>
<path d="M13.4816 17.4945C16.8664 17.4945 19.8238 17.096 22.0371 16.3374C23.4727 15.8477 24.6921 15.1948 25.5611 14.4506C26.4829 13.6632 26.9727 12.8038 26.9727 11.9732C26.9727 10.3793 25.2251 8.81892 22.2916 7.80109C19.8911 6.9657 16.7608 6.5 13.4864 6.5C10.2697 6.5 7.1826 6.9513 4.79646 7.77709C3.39935 8.2572 2.22308 8.88134 1.38769 9.57269C0.480289 10.3313 0.000183098 11.1618 0.000183098 11.9732C0.000183098 13.6296 1.95422 15.3052 5.10373 16.347C7.33143 17.0864 10.3081 17.4945 13.4816 17.4945ZM13.4816 7.65226C16.5879 7.65226 19.6606 8.10356 21.9075 8.88614C24.6057 9.82715 25.8156 11.1138 25.8156 11.9732C25.8156 12.8662 24.5145 14.2729 21.6627 15.2476C19.5694 15.9629 16.7368 16.3422 13.4816 16.3422C10.4281 16.3422 7.58109 15.9581 5.46381 15.2524C2.50155 14.2681 1.14764 12.8614 1.14764 11.9732C1.14764 11.5171 1.49332 10.9794 2.12226 10.4561C2.84722 9.85115 3.90346 9.29903 5.16615 8.86213C7.43706 8.08436 10.3897 7.65226 13.4816 7.65226Z" fill="#00D8FF"/>
<path d="M18.9501 23.9856C19.4398 23.9856 19.8719 23.88 20.2368 23.6687C21.6147 22.8718 22.0948 20.5768 21.5139 17.5281C21.0385 15.0268 19.8767 12.0885 18.2395 9.25109C16.6312 6.46646 14.7011 4.01791 12.7951 2.36153C11.6812 1.39172 10.553 0.681156 9.53515 0.306672C8.4261 -0.10142 7.46589 -0.10142 6.76493 0.301871C5.3294 1.12766 4.8541 3.66263 5.52625 6.90816C6.00155 9.21268 7.13461 11.9925 8.71897 14.7435C10.4089 17.6722 12.2334 20.0343 13.9954 21.5755C15.138 22.5741 16.3143 23.3039 17.3897 23.6831C17.9514 23.8848 18.4796 23.9856 18.9501 23.9856ZM17.745 9.53915L17.2457 9.82722C18.7964 12.5158 19.9439 15.4013 20.3856 17.7442C20.9185 20.5528 20.4048 22.2428 19.6654 22.6701C19.483 22.7757 19.2429 22.8333 18.9501 22.8333C17.9947 22.8333 16.4919 22.2284 14.7539 20.7113C13.088 19.2565 11.3452 16.9904 9.71759 14.1722C8.19085 11.5268 7.1058 8.867 6.6545 6.68251C6.02556 3.62422 6.56808 1.7518 7.34106 1.3053C7.73475 1.07965 8.37329 1.10845 9.14146 1.39172C10.0297 1.71819 11.0331 2.35673 12.0413 3.23533C13.8513 4.81009 15.6997 7.15301 17.2457 9.83202L17.745 9.53915Z" fill="#00D8FF"/>
<path d="M8.01334 24.0002C9.31923 24.0002 10.9756 23.2129 12.704 21.7245C14.634 20.0633 16.5977 17.5908 18.2396 14.7533C19.8528 11.9687 21.0051 9.07366 21.49 6.5915C21.7732 5.14158 21.826 3.81168 21.6436 2.74104C21.442 1.57438 20.9667 0.743788 20.2609 0.335696C18.8302 -0.494891 16.396 0.359701 13.9187 2.5634C12.1615 4.12375 10.3179 6.49548 8.7287 9.2417C7.03392 12.1704 5.89606 14.931 5.44476 17.2259C5.15189 18.7142 5.10388 20.0969 5.31033 21.2204C5.53118 22.4159 6.03049 23.2657 6.75065 23.6834C7.11073 23.8946 7.53803 24.0002 8.01334 24.0002ZM17.241 14.1772C15.6855 16.8658 13.7554 19.3 11.9502 20.8507C9.78493 22.7135 8.06615 23.1168 7.32198 22.6847C6.54901 22.2382 5.98248 20.409 6.56821 17.4516C7.00031 15.2815 8.09015 12.6409 9.72252 9.82263C11.2541 7.17724 13.0161 4.90633 14.682 3.42759C17.0154 1.35353 18.907 0.88782 19.68 1.33432C20.0737 1.55997 20.3665 2.1313 20.5057 2.93788C20.6642 3.86929 20.6162 5.05996 20.3569 6.37065C19.896 8.72799 18.7918 11.4982 17.241 14.1772Z" fill="#00D8FF"/>
<path d="M37 0L38.9072 21.5999L47.4716 24L56.0327 21.6014L57.9433 0H37V0Z" fill="#FF5722"/>
<path d="M53.8069 7.06336H43.7692L44.0086 9.77676H53.5678L52.8481 17.9128L47.4719 19.4173L47.4671 19.4189L42.0939 17.9128L41.7184 13.6573H44.3512L44.5473 15.8652L47.4687 16.6617L47.4719 16.6604L50.3965 15.8638L50.7016 12.4275H41.6107L40.9014 4.41602H54.0405L53.8069 7.06336Z" fill="#FCFCFC"/>
</svg>
