<svg width="18" height="16" viewBox="0 0 18 16" fill="none" xmlns="http://www.w3.org/2000/svg">
<path d="M10.3438 14.9919L10.3436 14.992C9.95159 15.3482 9.3356 15.3339 8.96204 14.9594M10.3438 14.9919L9.13904 14.7828M10.3438 14.9919L16.7387 9.17499L16.7387 9.17505L16.7432 9.17074C17.0678 8.86041 17.25 8.44435 17.25 7.99992C17.25 7.55425 17.0666 7.13816 16.7302 6.81731L16.7302 6.81726L16.7258 6.81328L10.3435 1.00834C10.1527 0.834643 9.90977 0.749999 9.66975 0.749999C9.41444 0.749999 9.15573 0.846059 8.96159 1.04088C8.58126 1.42228 8.59755 2.02953 8.99575 2.39173L8.99614 2.39208L14.1386 7.04992M10.3438 14.9919L14.1386 7.04992M8.96204 14.9594L9.13904 14.7828M8.96204 14.9594C8.96204 14.9594 8.96204 14.9594 8.96204 14.9594L9.13904 14.7828M8.96204 14.9594C8.58163 14.578 8.59788 13.9703 8.99612 13.6081L9.1537 13.7814L8.99612 13.6081L14.1175 8.94991M9.13904 14.7828C8.85976 14.5028 8.87112 14.0597 9.16433 13.793L14.489 8.94991L14.1175 8.94991M14.1175 8.94991L1.73302 8.9499C1.20131 8.9499 0.750001 8.53512 0.750001 7.99991C0.750001 7.46471 1.20131 7.04992 1.73302 7.04992L14.1386 7.04992M14.1175 8.94991L14.3924 8.69991L1.73302 8.6999C1.32839 8.6999 1 8.38631 1 7.99991C1 7.61352 1.32839 7.29992 1.73302 7.29992L14.1386 7.04992" fill="#333333" stroke="#333333" stroke-width="0.5"/>
</svg>
