<svg width="43" height="43" viewBox="0 0 43 43" fill="none" xmlns="http://www.w3.org/2000/svg">
<path d="M4 20V18.5H2.5V20H4ZM4 21.5H40V18.5H4V21.5ZM39.5 21V37H42.5V21H39.5ZM37 39.5H8V42.5H37V39.5ZM5.5 37V20H2.5V37H5.5ZM8 39.5C6.61929 39.5 5.5 38.3807 5.5 37H2.5C2.5 40.0376 4.96243 42.5 8 42.5V39.5ZM39.5 37C39.5 38.3807 38.3807 39.5 37 39.5V42.5C40.0376 42.5 42.5 40.0376 42.5 37H39.5ZM40 21.5C39.7239 21.5 39.5 21.2761 39.5 21H42.5C42.5 19.6193 41.3807 18.5 40 18.5V21.5Z" fill="#8787FF"/>
<rect x="3" y="26" width="39" height="3" fill="#8787FF"/>
<rect x="13.9647" y="20" width="3" height="7.59092" transform="rotate(15 13.9647 20)" fill="#8787FF"/>
<rect x="21.9647" y="20" width="3" height="7.59092" transform="rotate(15 21.9647 20)" fill="#8787FF"/>
<rect x="29.9647" y="20" width="3" height="7.59092" transform="rotate(15 29.9647 20)" fill="#8787FF"/>
<path d="M3.03528 16.0971C2.46351 13.9632 3.72984 11.7699 5.8637 11.1981L33.8756 3.69237C36.0094 3.1206 38.2028 4.38693 38.7745 6.5208L39.551 9.41857C39.6939 9.95204 39.3773 10.5004 38.8439 10.6433L4.07055 19.9608L3.03528 16.0971Z" stroke="#8787FF" stroke-width="3"/>
<rect width="3.22613" height="9.19144" transform="matrix(0.997654 -0.0684567 0.368987 0.929435 10 9.15845)" fill="#8787FF"/>
<rect width="3.22613" height="9.05833" transform="matrix(0.997654 -0.0684567 0.368987 0.929435 17.6841 7.0625)" fill="#8787FF"/>
<rect width="3.22613" height="8.24001" transform="matrix(0.997654 -0.0684567 0.368987 0.929435 25.333 4.87793)" fill="#8787FF"/>
</svg>
