<svg width="22" height="24" viewBox="0 0 22 24" fill="none" xmlns="http://www.w3.org/2000/svg">
<path fill-rule="evenodd" clip-rule="evenodd" d="M0 23L4 23L4 21L2 21L2 19L-2.5415e-07 19L0 23ZM6 23L9.00001 23L9.00001 21L6 21L6 23ZM-8.03666e-07 13.25L-4.6022e-07 17L2 17L2 13.25L-8.03666e-07 13.25ZM-1.35318e-06 7L-1.00973e-06 10.75L2 10.75L2 7L-1.35318e-06 7ZM-1.55925e-06 5L2 5L2 3L4 3L4 1L-1.8134e-06 1L-1.55925e-06 5ZM9 0.999999L6 0.999999L6 3L9 3L9 0.999999Z" fill="black"/>
<rect width="2" height="11" transform="matrix(-1 0 0 1 16 0)" fill="black"/>
<rect width="2" height="9" transform="matrix(-1 0 0 1 16 15)" fill="black"/>
<path d="M10.8282 15.4873V18.3571V18.3574C10.8277 18.584 10.7258 18.7984 10.5504 18.9418L10.5504 18.9418C10.2268 19.2066 9.74975 19.1588 9.48497 18.8352L4.02049 12.1566L4.02032 12.1564C3.78461 11.8673 3.7946 11.4496 4.04379 11.1721L4.04391 11.1719L9.50836 5.10044L9.50842 5.10037C9.65196 4.9411 9.85628 4.85005 10.0708 4.85L10.8282 15.4873ZM10.8282 15.4873C13.1352 15.583 15.0016 16.1277 16.4558 17.1231C17.9409 18.1396 19.0089 19.6347 19.6749 21.6328L19.675 21.6329C19.7781 21.9415 20.067 22.1497 20.3923 22.15L10.8282 15.4873ZM20.515 22.1401C20.5149 22.1401 20.5148 22.1401 20.5147 22.1401L20.4906 21.9921L20.515 22.1401ZM20.515 22.1401C20.8812 22.0802 21.15 21.7639 21.15 21.3928C21.15 14.2407 16.8704 8.92908 10.8282 8.51807V5.60698V5.60693C10.828 5.18877 10.489 4.84988 10.0708 4.85L20.515 22.1401ZM10.071 13.9571C9.65282 13.9571 9.31382 14.296 9.31382 14.7142V16.2368L5.60377 11.7019L9.31385 7.58005V9.24984C9.31385 9.66802 9.65285 10.007 10.071 10.007C14.5474 10.007 17.9582 12.9596 19.164 17.562C17.1559 15.1598 14.1034 13.9571 10.071 13.9571Z" fill="black" stroke="black" stroke-width="0.3"/>
</svg>
