<svg width="22" height="24" viewBox="0 0 22 24" fill="none" xmlns="http://www.w3.org/2000/svg">
<path fill-rule="evenodd" clip-rule="evenodd" d="M21.9998 23L17.9998 23L17.9998 21L19.9998 21L19.9998 19L21.9998 19L21.9998 23ZM15.9998 23L12.9998 23L12.9998 21L15.9998 21L15.9998 23ZM21.9998 13.25L21.9998 17L19.9998 17L19.9998 13.25L21.9998 13.25ZM21.9998 7L21.9998 10.75L19.9998 10.75L19.9998 7L21.9998 7ZM21.9998 5L19.9998 5L19.9998 3L17.9998 3L17.9998 1L21.9998 1L21.9998 5ZM12.9998 0.999999L15.9998 0.999999L15.9998 3L12.9998 3L12.9998 0.999999Z" fill="black"/>
<rect x="5.99976" width="2" height="11" fill="black"/>
<rect x="5.99976" y="15" width="2" height="9" fill="black"/>
<path d="M11.1718 15.4873V18.3571V18.3574C11.1723 18.584 11.2742 18.7984 11.4496 18.9418L11.4496 18.9418C11.7732 19.2066 12.2503 19.1588 12.515 18.8352L17.9795 12.1566L17.9797 12.1564C18.2154 11.8673 18.2054 11.4496 17.9562 11.1721L17.9561 11.1719L12.4916 5.10044L12.4916 5.10037C12.348 4.9411 12.1437 4.85005 11.9292 4.85L11.1718 15.4873ZM11.1718 15.4873C8.8648 15.583 6.99845 16.1277 5.54422 17.1231C4.05906 18.1396 2.9911 19.6347 2.32506 21.6328L2.32503 21.6329C2.22187 21.9415 1.93303 22.1497 1.60766 22.15C1.60752 22.15 1.60738 22.15 1.60724 22.15L1.60718 22C1.57445 22.0001 1.54172 21.9974 1.50941 21.9921L1.48526 22.1401C1.48516 22.1401 1.48507 22.1401 1.48497 22.1401C1.11884 22.0802 0.85 21.7639 0.85 21.3928C0.850037 14.2407 5.12958 8.92908 11.1718 8.51807V5.60698V5.60693C11.172 5.18877 11.511 4.84988 11.9292 4.85L11.1718 15.4873ZM11.929 13.9571C12.3472 13.9571 12.6862 14.296 12.6862 14.7142V16.2368L16.3962 11.7019L12.6861 7.58005V9.24984C12.6861 9.66802 12.3472 10.007 11.929 10.007C7.45256 10.007 4.04184 12.9596 2.83605 17.562C4.84407 15.1598 7.89666 13.9571 11.929 13.9571Z" fill="black" stroke="black" stroke-width="0.3"/>
</svg>
