<svg width="34" height="36" viewBox="0 0 34 36" fill="none" xmlns="http://www.w3.org/2000/svg">
<path d="M0.866628 15.6277C0.866628 17.6231 2.14032 20.3598 4.12957 21.0303V21.1091C2.65143 21.7636 2.24262 25.0998 4.20813 26.2986V26.3774C2.06176 27.0873 0.646484 28.4518 0.646484 30.81C0.646484 34.8719 4.48333 35.9996 7.84046 35.9996C11.9288 35.9996 14.9716 34.5247 14.9716 30.0055C14.9716 24.4452 7.03071 26.496 7.03071 23.4751C7.03071 22.4106 7.59673 22.0004 8.57953 21.7952C11.8424 21.1881 13.8865 18.6406 13.8865 15.3123C13.8865 14.7366 13.7686 14.1923 13.5721 13.6561C14.0989 13.5377 14.6099 13.3957 15.121 13.2222V9.23932C13.7686 9.77562 12.3142 10.17 10.836 10.17C6.60605 7.72505 0.866628 10.2725 0.866628 15.6277ZM7.76182 28.5465C9.09853 28.5465 11.0011 28.7831 11.0011 30.5182C11.0011 32.2376 9.46806 32.5925 8.03709 32.5925C6.67695 32.5925 4.63272 32.3795 4.63272 30.6049C4.64053 28.8461 6.37021 28.5465 7.76182 28.5465ZM7.51021 18.3329C5.78053 18.3329 5.04935 17.3077 5.04935 15.6673C5.04935 11.779 9.84526 11.8184 9.84526 15.6277C9.84526 17.2288 9.21637 18.3329 7.51021 18.3329ZM33.3534 22.2368V26.1015C32.3077 26.6771 30.9555 26.8744 29.7759 26.8744C25.5697 26.8744 25.0744 23.546 25.0744 20.1155V13.1985H25.1137V13.1198C24.5633 13.1198 24.5399 12.9934 23.2268 13.1985V9.45232H25.1137C25.1137 7.69355 25.1374 7.00732 24.9958 6.20294H29.4539C29.2965 7.29137 29.3359 8.3718 29.3359 9.45232H33.3455V13.1985C33.3455 13.1985 31.828 13.1198 29.3359 13.1198V20.3046C29.3359 21.472 29.5953 22.8917 31.0498 22.8917C31.8202 22.8917 32.7243 22.6709 33.3534 22.2368ZM21.8745 3.56084C21.8745 5.03571 20.7345 6.41586 19.2172 6.41586C17.6604 6.41586 16.5046 5.05937 16.5046 3.56084C16.5046 2.03866 17.6446 0.66626 19.2172 0.66626C20.7739 0.66626 21.8745 2.0859 21.8745 3.56084ZM21.387 9.43657C21.2455 10.588 21.2613 25.1945 21.387 26.6143H17.0235C17.1493 25.1868 17.165 10.6038 17.0235 9.43657H21.387Z" fill="#F05033"/>
</svg>
