<svg width="105" height="24" viewBox="0 0 105 24" fill="none" xmlns="http://www.w3.org/2000/svg">
<path d="M75.5398 12.3438C75.5131 12.3846 75.4613 12.5134 75.3906 12.7285C75.3184 12.9451 75.2305 13.2152 75.1269 13.5449C75.0233 13.8699 74.9102 14.2357 74.7909 14.6392L74.4188 15.8764C74.2775 16.2972 74.1676 16.7086 74.042 17.1136L73.728 18.2095L73.4924 19.0291L73.3825 19.4216C73.3354 19.5519 73.2883 19.6964 73.2098 19.8565C73.1313 20.0135 73.0371 20.1658 72.9429 20.3087C72.833 20.45 72.7231 20.5709 72.5975 20.6651C72.4719 20.7593 72.3463 20.8064 72.205 20.8064C71.9852 20.8064 71.8282 20.7311 71.7183 20.5866C71.6084 20.4375 71.5613 20.169 71.5613 19.7765V19.4216C71.5613 19.2913 71.6241 19.0448 71.7183 18.6868C71.8125 18.3257 71.9224 17.9206 72.0637 17.4685C72.1893 17.0132 72.3463 16.5453 72.4876 16.0601L72.9115 14.7413C72.5347 15.1495 72.1422 15.5577 71.7183 15.9502C71.2944 16.3584 70.8547 16.7196 70.4151 17.0336C69.9598 17.3476 69.5045 17.6145 69.0492 17.8186C68.5939 18.0227 68.1542 18.1169 67.7303 18.1169C67.2436 18.1169 66.8354 18.007 66.49 17.7872C66.1446 17.5674 65.8463 17.3005 65.6265 16.9551C65.4066 16.6096 65.2339 16.2171 65.124 15.7932C65.0628 15.3866 65 14.947 65 14.523V14.366C65 14.3189 65.0063 14.2671 65.0157 14.2185C65.0534 13.4334 65.1649 12.6327 65.3454 11.81C65.5338 10.981 65.7693 10.1614 66.0676 9.34499C66.366 8.52856 66.7114 7.72783 67.1039 6.94908C67.5121 6.20173 67.936 5.4638 68.3913 4.77298C68.8466 4.08215 69.3365 3.43843 69.8515 2.85751C70.3696 2.27344 70.8987 1.77103 71.4435 1.35025C71.9868 0.926335 72.5363 0.596622 73.0921 0.361113C73.6416 0.125605 74.1911 0 74.7344 0C75.3624 0 75.9684 0.172706 76.5556 0.513409C77.1366 0.863532 77.6861 1.41305 78.2011 2.18238C78.3172 2.35509 78.3895 2.52779 78.4209 2.70364C78.4523 2.87635 78.468 3.04434 78.468 3.19821C78.468 3.5656 78.3816 3.85763 78.2058 4.06802C78.0331 4.28783 77.8289 4.38203 77.5777 4.38203C77.3579 4.38203 77.1538 4.27213 76.9654 4.03662C76.777 3.80111 76.5572 3.4714 76.3374 3.04748C76.1176 2.65497 75.8821 2.37236 75.6152 2.19965C75.3483 2.02695 75.0656 1.94844 74.7516 1.94844C74.2649 1.94844 73.7625 2.15255 73.213 2.56077C72.6635 2.96898 72.1296 3.4871 71.5958 4.14652C71.062 4.80595 70.5439 5.55958 70.0572 6.40741C69.5704 7.25524 69.1308 8.11877 68.754 9.01371C68.3772 9.90864 68.0789 10.7722 67.8591 11.6357C67.6393 12.4992 67.5294 13.2686 67.5294 13.9594C67.5294 14.1949 67.5451 14.4304 67.5765 14.6659C67.6079 14.9171 67.6707 15.1212 67.7492 15.3253C67.8277 15.5294 67.9533 15.6865 68.1103 15.8121C68.2673 15.9377 68.4557 16.0005 68.6755 16.0005C68.9267 16.0005 69.225 15.922 69.539 15.7493C69.8688 15.5766 70.1985 15.3567 70.5439 15.0741C70.8893 14.7915 71.2504 14.4775 71.5958 14.1321C71.9412 13.7867 72.2866 13.4256 72.585 13.0645C72.8833 12.7033 73.1659 12.3579 73.3857 12.0282C73.6212 11.6985 73.7939 11.4159 73.9195 11.1647L74.8286 8.24281C74.9447 7.93351 75.0955 7.71213 75.2886 7.58338C75.477 7.4515 75.6701 7.38556 75.8695 7.38556C75.9637 7.38556 76.0626 7.40126 76.16 7.43266C76.2542 7.46406 76.3452 7.5143 76.4222 7.58338C76.5007 7.64619 76.5588 7.74039 76.6043 7.85029C76.6514 7.9602 76.6828 8.0858 76.6828 8.24281C76.6828 8.63532 76.6514 9.00586 76.5886 9.34813C76.5258 9.69354 76.4316 10.0233 76.3217 10.353C76.2275 10.6748 76.1019 11.003 75.9763 11.3343C75.8507 11.664 75.7251 12.0094 75.5995 12.3705L75.5398 12.3438ZM88.576 14.7429C88.273 15.1511 87.9197 15.5499 87.5178 15.9361C87.1143 16.3255 86.6982 16.6709 86.2712 16.9723C85.8441 17.2738 85.4233 17.5171 85.0104 17.7008C84.5959 17.8845 84.2254 17.9756 83.8957 17.9756C83.5659 17.9756 83.2943 17.8657 83.0871 17.6459C82.8798 17.4261 82.7762 17.0493 82.7762 16.5154C82.7762 16.1386 82.8327 15.699 82.9426 15.1966C82.7636 15.5106 82.5391 15.8403 82.2706 16.1543C82.0037 16.484 81.6944 16.7824 81.3506 17.0493C81.0052 17.3162 80.6189 17.536 80.1919 17.693C79.7648 17.85 79.3001 17.9442 78.7945 17.9442C78.57 17.9442 78.3502 17.9128 78.1398 17.85C77.92 17.7872 77.7316 17.693 77.5746 17.5517C77.4176 17.4104 77.292 17.222 77.1821 16.9865C77.0879 16.751 77.0408 16.4526 77.0408 16.1072L77.0722 15.7304C77.1036 15.4949 77.1821 15.1024 77.3391 14.5843C77.4961 14.0662 77.7159 13.391 78.0299 12.5589C78.3439 11.7268 78.7678 10.7376 79.3331 9.56009C79.4744 9.24607 79.6314 9.02627 79.8355 8.88496C80.0239 8.74366 80.228 8.68085 80.4478 8.68085C80.542 8.68085 80.6362 8.69656 80.7461 8.72796C80.8403 8.74366 80.9345 8.79076 81.0287 8.85356C81.1229 8.91636 81.1857 8.99487 81.2485 9.08907C81.2956 9.16757 81.327 9.27748 81.327 9.40308C81.327 9.48158 81.3113 9.56009 81.2956 9.62289C81.2485 9.76419 81.1857 9.9369 81.0758 10.1567L80.6676 10.9323C80.5106 11.2149 80.3536 11.5289 80.1809 11.8618C80.0082 12.1962 79.8512 12.5526 79.7099 12.9012C79.5686 13.2623 79.443 13.6312 79.3331 14.0002C79.2232 14.377 79.1604 14.7381 79.1447 15.0836C79.1447 15.2406 79.1761 15.3662 79.2389 15.4918C79.3017 15.6174 79.4273 15.6802 79.5843 15.6802C80.0239 15.6802 80.4635 15.5389 80.8717 15.2406C81.2799 14.947 81.6567 14.5811 82.0022 14.1447C82.3476 13.705 82.6616 13.234 82.9442 12.7316C83.2268 12.2292 83.4466 11.7739 83.635 11.3594C83.7606 11.0815 83.8862 10.7832 83.9804 10.4644C84.0746 10.1504 84.1845 9.85212 84.3101 9.58521C84.4201 9.3183 84.5614 9.08907 84.7184 8.91008C84.8597 8.7311 85.0481 8.64317 85.2836 8.64317C85.5191 8.64317 85.7232 8.73738 85.8645 8.92578C86.0058 9.11419 86.0843 9.334 86.0843 9.60091C86.0843 9.74221 86.0372 9.94632 85.943 10.1975C85.8488 10.4487 85.7389 10.7471 85.5976 11.0768L85.1423 12.1397C84.9696 12.5165 84.8283 12.8933 84.687 13.2858C84.5457 13.6705 84.4201 14.0552 84.3258 14.4226C84.2316 14.7994 84.1845 15.1448 84.1845 15.4588C84.1845 15.7571 84.3415 15.8984 84.6399 15.8984C84.8597 15.8984 85.1266 15.8356 85.4406 15.6786C85.7546 15.5373 86.0843 15.3332 86.4297 15.0663C86.7751 14.7994 87.1206 14.4854 87.466 14.1242C87.8114 13.7631 88.1254 13.38 88.3923 12.9624L88.5022 14.6267L88.576 14.7429Z" fill="#CF4647"/>
<path d="M88.896 14.1306C88.8206 14.319 88.7468 14.5388 88.6761 14.7868C88.6024 15.0349 88.5662 15.2579 88.5662 15.4541C88.5662 15.5766 88.5867 15.6739 88.629 15.7477C88.6699 15.8215 88.7484 15.8576 88.8646 15.8576C89.0106 15.8576 89.1911 15.8074 89.4094 15.7053C89.626 15.6033 89.86 15.4698 90.1112 15.3003C90.3624 15.1338 90.6262 14.9423 90.8962 14.7256C91.1694 14.5058 91.441 14.2703 91.7095 14.0505C91.9764 13.815 92.2339 13.5795 92.4788 13.344C92.7238 13.1085 92.9436 12.8886 93.1383 12.7002C93.1916 12.6374 93.256 12.606 93.3329 12.5746C93.4083 12.5432 93.4742 12.5275 93.5292 12.5275C93.6705 12.5275 93.7804 12.5746 93.8746 12.7002C93.9688 12.8101 94.0159 12.9671 94.0159 13.1556C94.0159 13.3283 93.9688 13.5167 93.8746 13.7208C93.7804 13.9249 93.6077 14.129 93.3722 14.3331C92.9326 14.8041 92.493 15.2594 92.0376 15.699C91.598 16.123 91.1427 16.5155 90.7031 16.8452C90.2635 17.1749 89.8239 17.4261 89.3842 17.6302C88.9446 17.8186 88.5207 17.9128 88.1125 17.9128C87.8299 17.9128 87.5944 17.8657 87.406 17.7715C87.2176 17.6773 87.0763 17.5517 86.9507 17.3947C86.8408 17.2377 86.7622 17.0493 86.7151 16.8452C86.668 16.6254 86.6523 16.4056 86.6523 16.1701C86.6523 15.7619 86.6994 15.3536 86.8093 14.9297C86.9193 14.5058 87.0292 14.1133 87.1705 13.7679C87.4217 13.1242 87.6572 12.4961 87.9084 11.8681L88.5992 10.141L91.7221 2.27662C91.8398 1.96261 92.0047 1.73966 92.2166 1.60149C92.4302 1.47589 92.6405 1.41309 92.8556 1.41309C93.0755 1.41309 93.2639 1.47589 93.4428 1.61719C93.6156 1.75222 93.7098 1.97831 93.7098 2.28761C93.7098 2.43362 93.6784 2.58906 93.6234 2.75235C93.5606 2.90935 93.4978 3.08834 93.4036 3.27518C93.2309 3.65513 93.0268 4.12301 92.7913 4.67881L92.0062 6.50008C91.7393 7.15165 91.4567 7.83463 91.1741 8.54115L90.3263 10.6136C90.0437 11.2856 89.7925 11.9168 89.557 12.5197L88.9446 14.0787L88.896 14.1306Z" fill="#CF4647"/>
<path d="M103.545 11.917C103.644 11.8495 103.733 11.7961 103.817 11.7553C103.898 11.7145 103.978 11.6925 104.052 11.6925C104.204 11.6925 104.319 11.7616 104.394 11.8966C104.473 12.0316 104.52 12.1949 104.52 12.3928C104.52 12.6047 104.473 12.8214 104.379 13.0412C104.284 13.261 104.159 13.4463 103.97 13.5907C103.232 14.2454 102.573 14.842 102.008 15.3806C101.427 15.9191 100.893 16.3823 100.375 16.7701C99.8568 17.1626 99.3544 17.4609 98.8677 17.6807C98.381 17.9005 97.8629 18.0104 97.2976 18.0104C96.7795 18.0104 96.3713 17.9005 96.0887 17.665C95.8061 17.4452 95.6648 17.1312 95.6648 16.723V16.6288C95.6648 16.6131 95.6805 16.566 95.6805 16.5346C95.7119 16.2991 95.8218 16.0165 96.0102 15.6867C96.1986 15.3727 96.4184 15.043 96.6853 14.6976C96.9522 14.3522 97.2348 14.0068 97.5332 13.6614C97.8315 13.316 98.0984 12.9862 98.3653 12.6722C98.6165 12.3582 98.8206 12.0756 98.9933 11.8087C99.166 11.5575 99.2445 11.3377 99.2445 11.1807C99.2445 11.0865 99.2131 11.008 99.1472 10.9452C99.0734 10.8981 98.9588 10.8667 98.8018 10.8667C98.5191 10.8667 98.2365 10.9452 97.9445 11.0865C97.6462 11.2278 97.3542 11.4319 97.0653 11.6674C96.7827 11.9186 96.5001 12.1855 96.23 12.4995C95.96 12.8135 95.7119 13.1432 95.4607 13.473C95.2252 13.8184 95.0054 14.1481 94.8013 14.4935C94.6128 14.8389 94.4401 15.1529 94.2988 15.4355L94.1261 15.8123L93.8906 16.3776L93.608 17.0056L93.3411 17.6179L93.1213 18.136C93.0585 18.293 93.0114 18.3872 92.98 18.45C92.9486 18.5285 92.9015 18.6699 92.823 18.874L92.5404 19.593L92.2107 20.4566L91.8966 21.3044L91.6297 22.0235C91.5512 22.2276 91.5041 22.3658 91.4884 22.4396C91.4099 22.6437 91.3314 22.8478 91.2372 23.0362C91.143 23.2246 91.041 23.3863 90.9201 23.5292C90.8007 23.6705 90.6626 23.7882 90.5071 23.8746C90.3501 23.9531 90.1774 24.0002 89.989 24.0002C89.7378 24.0002 89.5337 23.9374 89.3767 23.8244C89.2197 23.7145 89.1255 23.4789 89.1255 23.1492C89.1255 22.9922 89.1412 22.8195 89.1883 22.6468C89.2197 22.4741 89.2825 22.314 89.3453 22.1444C89.3924 21.9717 89.4709 21.8147 89.5337 21.6577C89.5965 21.5007 89.6593 21.3437 89.7064 21.1929C90.0675 20.3765 90.4522 19.5601 90.8369 18.7342C91.2215 17.9084 91.5905 17.1014 91.9516 16.3006C92.3064 15.4999 92.6346 14.7149 92.9407 13.9298C93.239 13.1605 93.4903 12.4132 93.6944 11.7004L93.9142 11.0786C94.0084 10.8117 94.1183 10.5448 94.2439 10.2936C94.3695 10.0424 94.5108 9.80687 94.6678 9.61846C94.8248 9.43006 94.9975 9.33114 95.1702 9.33114C95.4528 9.33114 95.6522 9.39394 95.7763 9.51955C95.9019 9.65771 95.9647 9.83356 95.9647 10.0848C95.9647 10.1319 95.9584 10.2104 95.9443 10.3203C95.9286 10.4302 95.9129 10.5401 95.8877 10.6578L95.8202 10.9876C95.8045 11.0975 95.7731 11.176 95.7574 11.2231C96.0086 10.9467 96.2912 10.6735 96.5864 10.3988C96.8847 10.1272 97.1987 9.88066 97.5127 9.66085C97.8268 9.44105 98.1565 9.25264 98.4862 9.11918C98.8159 8.97788 99.1456 8.90723 99.4753 8.90723C99.7108 8.90723 99.9306 8.93863 100.16 9.00143C100.38 9.06737 100.584 9.16315 100.756 9.29032C100.94 9.41593 101.083 9.57293 101.193 9.76134C101.303 9.94975 101.358 10.1743 101.358 10.427C101.358 10.7615 101.27 11.1179 101.107 11.4947C100.934 11.8778 100.73 12.264 100.469 12.6408C100.218 13.0271 99.9401 13.4007 99.6433 13.7634C99.345 14.1245 99.0781 14.4542 98.8112 14.7526L98.1518 15.5219C97.979 15.726 97.8848 15.8673 97.8817 15.9458C97.8817 16.04 97.9131 16.1185 97.9759 16.1813C98.0387 16.2441 98.1486 16.2755 98.2899 16.2755C98.4124 16.2755 98.5851 16.2049 98.808 16.0714C99.0404 15.9301 99.3576 15.7103 99.7658 15.3869C100.174 15.0571 100.702 14.6332 101.331 14.0837C101.959 13.5405 102.744 12.8591 103.666 12.0316L103.545 11.917Z" fill="#CF4647"/>
<path d="M43 24C49.6274 24 55 18.6274 55 12C55 5.37258 49.6274 0 43 0C36.3726 0 31 5.37258 31 12C31 18.6274 36.3726 24 43 24Z" fill="#CC6699"/>
<path d="M49.4559 6.6719C49.3119 6.0959 48.9039 5.6159 48.2799 5.2799C47.0559 4.6319 45.0879 4.60791 43.2879 5.25591C42.2079 5.63991 40.1679 6.5039 38.6319 7.9199C37.0959 9.3599 36.8559 10.6319 36.9759 11.1359C37.2399 12.5279 38.7039 13.5119 39.8559 14.3279C40.1679 14.5439 40.4559 14.7359 40.6719 14.9279C40.0239 15.2639 38.2719 16.2479 37.7919 17.2799C37.4319 18.0959 37.5999 18.6959 37.7439 18.9599C37.8879 19.2719 38.1279 19.5119 38.3679 19.5839C38.6079 19.6559 38.8719 19.6799 39.1359 19.6799C40.1679 19.6799 41.1759 19.1279 41.7999 18.1919C42.4239 17.2559 42.4719 16.0079 42.1839 15.2399C42.5919 15.1439 43.0239 15.1439 43.5039 15.1919C44.4399 15.3119 44.8959 15.6719 45.1119 15.9599C45.3519 16.2719 45.3999 16.5839 45.3759 16.7759C45.3279 17.1359 45.0399 17.3519 44.8959 17.4479C44.7759 17.5199 44.6799 17.5919 44.7039 17.7359C44.7519 17.9279 44.9439 17.9039 45.0159 17.9039C45.2319 17.8559 45.9999 17.4719 46.0479 16.6079C46.0719 16.0799 45.8559 15.5519 45.4479 15.1199C44.9199 14.5679 44.1279 14.2799 43.2159 14.3039C42.5439 14.3039 42.0879 14.3759 41.7279 14.4959L41.7039 14.4719C41.3679 14.1119 40.9119 13.7759 40.5039 13.4399C39.5439 12.7199 38.6559 12.0239 38.7039 10.9919C38.7759 9.6959 40.0479 8.4239 42.5199 7.1999C44.7039 6.1199 46.4799 6.07191 47.4159 6.4079C47.7999 6.55191 48.0639 6.7439 48.1599 6.9599C48.3519 7.3679 48.2799 7.8959 47.9439 8.4719C47.3919 9.4319 45.9999 10.6319 43.8639 10.8719C42.5679 11.0159 42.0159 10.4399 41.9919 10.4159C41.8479 10.2479 41.7519 10.1519 41.5839 10.2479C41.3919 10.3439 41.4879 10.6079 41.5359 10.7039C41.6319 10.9679 42.0399 11.4239 42.7359 11.6639C43.2879 11.8559 44.7039 11.9759 46.4559 11.3039C48.4719 10.4879 49.8639 8.3279 49.4559 6.6719ZM41.1759 16.8959C41.1519 16.9439 41.1519 16.9919 41.1279 17.0399C41.1039 17.0879 41.0799 17.1359 41.0799 17.1839C40.9839 17.3999 40.8399 17.6159 40.6479 17.8079C40.0959 18.4079 39.3519 18.5759 39.1119 18.4319C39.0399 18.3839 39.0159 18.3119 38.9919 18.2159C38.9439 17.9279 39.1119 17.3519 39.6159 16.8479C40.2159 16.2239 41.0559 15.7679 41.2479 15.6719C41.3199 16.1039 41.2959 16.5119 41.1759 16.8959Z" fill="white"/>
<path d="M0 0L1.90723 21.5999L10.4716 24L19.0327 21.6014L20.9433 0H0V0Z" fill="#FF5722"/>
<path d="M16.8069 7.06336H6.7692L7.0086 9.77676H16.5678L15.8481 17.9128L10.4719 19.4173L10.4671 19.4189L5.09385 17.9128L4.71843 13.6573H7.35118L7.54729 15.8652L10.4687 16.6617L10.4719 16.6604L13.3965 15.8638L13.7016 12.4275H4.61074L3.90137 4.41602H17.0405L16.8069 7.06336Z" fill="#FCFCFC"/>
</svg>
