<svg width="202" height="24" viewBox="0 0 202 24" fill="none" xmlns="http://www.w3.org/2000/svg">
<path d="M130.037 10.1625C130.037 11.5179 130.905 13.3767 132.26 13.8321V13.8857C131.253 14.3303 130.974 16.5963 132.314 17.4107V17.4642C130.851 17.9464 129.887 18.8732 129.887 20.475C129.887 23.234 132.501 24 134.789 24C137.574 24 139.648 22.9982 139.648 19.9285C139.648 16.1518 134.237 17.5447 134.237 15.4928C134.237 14.7697 134.622 14.4911 135.292 14.3517C137.515 13.9394 138.908 12.209 138.908 9.94825C138.908 9.55721 138.828 9.1875 138.694 8.82327C139.053 8.74287 139.401 8.6464 139.749 8.52859V5.82321C138.828 6.18749 137.837 6.45535 136.83 6.45535C133.947 4.79465 130.037 6.525 130.037 10.1625ZM134.735 18.9375C135.646 18.9375 136.942 19.0982 136.942 20.2767C136.942 21.4447 135.898 21.6857 134.923 21.6857C133.996 21.6857 132.603 21.5411 132.603 20.3357C132.608 19.141 133.787 18.9375 134.735 18.9375ZM134.564 12C133.385 12 132.887 11.3036 132.887 10.1893C132.887 7.54829 136.155 7.57506 136.155 10.1625C136.155 11.25 135.726 12 134.564 12ZM152.172 14.6517V17.2768C151.46 17.6677 150.539 17.8018 149.735 17.8018C146.869 17.8018 146.531 15.541 146.531 13.2108V8.51247H146.558V8.45899C146.183 8.45899 146.167 8.37317 145.272 8.51247V5.96789H146.558C146.558 4.77326 146.574 4.30713 146.478 3.76076H149.515C149.408 4.50007 149.435 5.23395 149.435 5.96789H152.167V8.51247C152.167 8.51247 151.133 8.45899 149.435 8.45899V13.3393C149.435 14.1322 149.612 15.0965 150.603 15.0965C151.128 15.0965 151.744 14.9465 152.172 14.6517ZM144.351 1.96613C144.351 2.96793 143.574 3.90539 142.54 3.90539C141.48 3.90539 140.692 2.984 140.692 1.96613C140.692 0.932195 141.469 0 142.54 0C143.601 0 144.351 0.964283 144.351 1.96613ZM144.019 5.95719C143.922 6.73928 143.933 16.6607 144.019 17.625H141.046C141.131 16.6554 141.142 6.75003 141.046 5.95719H144.019V5.95719Z" fill="#F05033"/>
<path d="M34 0L35.9072 21.5999L44.4716 24L53.0327 21.6014L54.9433 0H34V0Z" fill="#FF5722"/>
<path d="M50.8069 7.06336H40.7692L41.0086 9.77676H50.5678L49.8481 17.9128L44.4719 19.4173L44.4671 19.4189L39.0939 17.9128L38.7184 13.6573H41.3512L41.5473 15.8652L44.4687 16.6617L44.4719 16.6604L47.3965 15.8638L47.7016 12.4275H38.6107L37.9014 4.41602H51.0405L50.8069 7.06336Z" fill="#FCFCFC"/>
<path d="M64.9434 0L66.8506 21.5999L75.415 24L83.9761 21.6014L85.8867 0H64.9434V0Z" fill="#2299F8"/>
<path d="M81.8086 7.06336L81.5678 9.77676L80.8405 17.9115L75.4149 19.4159L75.4102 19.4173L69.9872 17.9115L69.609 13.6573H72.2657L72.4632 15.8638L75.4117 16.6617L75.4132 16.6604L78.3662 15.8623L78.7686 12.1858L69.4818 12.2114L69.2184 9.69731L78.9912 9.58165L79.189 6.89082L68.9567 6.91951L68.7847 4.41602H82.0447L81.8086 7.06336Z" fill="#FCFCFC"/>
<path d="M172.712 12.3438C172.685 12.3846 172.634 12.5134 172.563 12.7285C172.491 12.9451 172.403 13.2152 172.299 13.5449C172.196 13.8699 172.083 14.2357 171.963 14.6392L171.591 15.8764C171.45 16.2972 171.34 16.7086 171.214 17.1136L170.9 18.2095L170.665 19.0291L170.555 19.4216C170.508 19.5519 170.461 19.6964 170.382 19.8565C170.304 20.0135 170.209 20.1658 170.115 20.3087C170.005 20.45 169.895 20.5709 169.77 20.6651C169.644 20.7593 169.519 20.8064 169.377 20.8064C169.158 20.8064 169.001 20.7311 168.891 20.5866C168.781 20.4375 168.734 20.169 168.734 19.7765V19.4216C168.734 19.2913 168.796 19.0448 168.891 18.6868C168.985 18.3257 169.095 17.9206 169.236 17.4685C169.362 17.0132 169.519 16.5453 169.66 16.0601L170.084 14.7413C169.707 15.1495 169.315 15.5577 168.891 15.9502C168.467 16.3584 168.027 16.7196 167.587 17.0336C167.132 17.3476 166.677 17.6145 166.222 17.8186C165.766 18.0227 165.327 18.1169 164.903 18.1169C164.416 18.1169 164.008 18.007 163.662 17.7872C163.317 17.5674 163.019 17.3005 162.799 16.9551C162.579 16.6096 162.406 16.2171 162.296 15.7932C162.235 15.3866 162.172 14.947 162.172 14.523V14.366C162.172 14.3189 162.179 14.2671 162.188 14.2185C162.226 13.4334 162.337 12.6327 162.518 11.81C162.706 10.981 162.942 10.1614 163.24 9.34499C163.538 8.52856 163.884 7.72783 164.276 6.94908C164.684 6.20173 165.108 5.4638 165.564 4.77298C166.019 4.08215 166.509 3.43843 167.024 2.85751C167.542 2.27344 168.071 1.77103 168.616 1.35025C169.159 0.926335 169.709 0.596622 170.264 0.361113C170.814 0.125605 171.363 0 171.907 0C172.535 0 173.141 0.172706 173.728 0.513409C174.309 0.863532 174.858 1.41305 175.373 2.18238C175.49 2.35509 175.562 2.52779 175.593 2.70364C175.625 2.87635 175.64 3.04434 175.64 3.19821C175.64 3.5656 175.554 3.85763 175.378 4.06802C175.205 4.28783 175.001 4.38203 174.75 4.38203C174.53 4.38203 174.326 4.27213 174.138 4.03662C173.949 3.80111 173.73 3.4714 173.51 3.04748C173.29 2.65497 173.054 2.37236 172.788 2.19965C172.521 2.02695 172.238 1.94844 171.924 1.94844C171.437 1.94844 170.935 2.15255 170.385 2.56077C169.836 2.96898 169.302 3.4871 168.768 4.14652C168.234 4.80595 167.716 5.55958 167.23 6.40741C166.743 7.25524 166.303 8.11877 165.926 9.01371C165.55 9.90864 165.251 10.7722 165.031 11.6357C164.812 12.4992 164.702 13.2686 164.702 13.9594C164.702 14.1949 164.717 14.4304 164.749 14.6659C164.78 14.9171 164.843 15.1212 164.922 15.3253C165 15.5294 165.126 15.6865 165.283 15.8121C165.44 15.9377 165.628 16.0005 165.848 16.0005C166.099 16.0005 166.397 15.922 166.711 15.7493C167.041 15.5766 167.371 15.3567 167.716 15.0741C168.062 14.7915 168.423 14.4775 168.768 14.1321C169.114 13.7867 169.459 13.4256 169.757 13.0645C170.056 12.7033 170.338 12.3579 170.558 12.0282C170.794 11.6985 170.966 11.4159 171.092 11.1647L172.001 8.24281C172.117 7.93351 172.268 7.71213 172.461 7.58338C172.649 7.4515 172.842 7.38556 173.042 7.38556C173.136 7.38556 173.235 7.40126 173.332 7.43266C173.427 7.46406 173.518 7.5143 173.595 7.58338C173.673 7.64619 173.731 7.74039 173.777 7.85029C173.824 7.9602 173.855 8.0858 173.855 8.24281C173.855 8.63532 173.824 9.00586 173.761 9.34813C173.698 9.69354 173.604 10.0233 173.494 10.353C173.4 10.6748 173.274 11.003 173.149 11.3343C173.023 11.664 172.897 12.0094 172.772 12.3705L172.712 12.3438ZM185.748 14.7429C185.445 15.1511 185.092 15.5499 184.69 15.9361C184.287 16.3255 183.871 16.6709 183.444 16.9723C183.016 17.2738 182.596 17.5171 182.183 17.7008C181.768 17.8845 181.398 17.9756 181.068 17.9756C180.738 17.9756 180.467 17.8657 180.259 17.6459C180.052 17.4261 179.949 17.0493 179.949 16.5154C179.949 16.1386 180.005 15.699 180.115 15.1966C179.936 15.5106 179.711 15.8403 179.443 16.1543C179.176 16.484 178.867 16.7824 178.523 17.0493C178.178 17.3162 177.791 17.536 177.364 17.693C176.937 17.85 176.472 17.9442 175.967 17.9442C175.742 17.9442 175.523 17.9128 175.312 17.85C175.092 17.7872 174.904 17.693 174.747 17.5517C174.59 17.4104 174.464 17.222 174.354 16.9865C174.26 16.751 174.213 16.4526 174.213 16.1072L174.245 15.7304C174.276 15.4949 174.354 15.1024 174.511 14.5843C174.668 14.0662 174.888 13.391 175.202 12.5589C175.516 11.7268 175.94 10.7376 176.505 9.56009C176.647 9.24608 176.804 9.02627 177.008 8.88496C177.196 8.74366 177.4 8.68085 177.62 8.68085C177.714 8.68085 177.809 8.69655 177.918 8.72796C178.013 8.74366 178.107 8.79076 178.201 8.85356C178.295 8.91636 178.358 8.99487 178.421 9.08907C178.468 9.16757 178.499 9.27748 178.499 9.40308C178.499 9.48158 178.484 9.56009 178.468 9.62289C178.421 9.76419 178.358 9.9369 178.248 10.1567L177.84 10.9323C177.683 11.2149 177.526 11.5289 177.353 11.8618C177.181 12.1962 177.024 12.5526 176.882 12.9012C176.741 13.2623 176.615 13.6312 176.505 14.0002C176.396 14.377 176.333 14.7381 176.317 15.0836C176.317 15.2406 176.348 15.3662 176.411 15.4918C176.474 15.6174 176.6 15.6802 176.757 15.6802C177.196 15.6802 177.636 15.5389 178.044 15.2406C178.452 14.947 178.829 14.5811 179.175 14.1447C179.52 13.705 179.834 13.234 180.117 12.7316C180.399 12.2292 180.619 11.7739 180.807 11.3594C180.933 11.0815 181.059 10.7832 181.153 10.4644C181.247 10.1504 181.357 9.85212 181.483 9.58521C181.592 9.3183 181.734 9.08907 181.891 8.91008C182.032 8.7311 182.22 8.64317 182.456 8.64317C182.691 8.64317 182.896 8.73738 183.037 8.92578C183.178 9.11419 183.257 9.334 183.257 9.60091C183.257 9.74221 183.21 9.94632 183.115 10.1975C183.021 10.4487 182.911 10.7471 182.77 11.0768L182.315 12.1397C182.142 12.5165 182.001 12.8933 181.859 13.2858C181.718 13.6705 181.592 14.0552 181.498 14.4226C181.404 14.7994 181.357 15.1448 181.357 15.4588C181.357 15.7571 181.514 15.8984 181.812 15.8984C182.032 15.8984 182.299 15.8356 182.613 15.6786C182.927 15.5373 183.257 15.3332 183.602 15.0663C183.948 14.7994 184.293 14.4854 184.638 14.1242C184.984 13.7631 185.298 13.38 185.565 12.9624L185.675 14.6267L185.748 14.7429Z" fill="#CF4647"/>
<path d="M186.068 14.1306C185.993 14.319 185.919 14.5388 185.849 14.7868C185.775 15.0349 185.739 15.2579 185.739 15.4541C185.739 15.5766 185.759 15.6739 185.801 15.7477C185.842 15.8215 185.921 15.8576 186.037 15.8576C186.183 15.8576 186.363 15.8074 186.582 15.7053C186.798 15.6033 187.032 15.4698 187.284 15.3003C187.535 15.1338 187.799 14.9423 188.069 14.7256C188.342 14.5058 188.613 14.2703 188.882 14.0505C189.149 13.815 189.406 13.5795 189.651 13.344C189.896 13.1085 190.116 12.8886 190.311 12.7002C190.364 12.6374 190.428 12.606 190.505 12.5746C190.581 12.5432 190.647 12.5275 190.702 12.5275C190.843 12.5275 190.953 12.5746 191.047 12.7002C191.141 12.8101 191.188 12.9671 191.188 13.1556C191.188 13.3283 191.141 13.5167 191.047 13.7208C190.953 13.9249 190.78 14.129 190.545 14.3331C190.105 14.8041 189.665 15.2594 189.21 15.699C188.77 16.123 188.315 16.5155 187.875 16.8452C187.436 17.1749 186.996 17.4261 186.557 17.6302C186.117 17.8186 185.693 17.9128 185.285 17.9128C185.002 17.9128 184.767 17.8657 184.578 17.7715C184.39 17.6773 184.249 17.5517 184.123 17.3947C184.013 17.2377 183.935 17.0493 183.888 16.8452C183.84 16.6254 183.825 16.4056 183.825 16.1701C183.825 15.7618 183.872 15.3536 183.982 14.9297C184.092 14.5058 184.202 14.1133 184.343 13.7679C184.594 13.1242 184.83 12.4961 185.081 11.8681L185.772 10.141L188.894 2.27662C189.012 1.96261 189.177 1.73966 189.389 1.60149C189.603 1.47589 189.813 1.41309 190.028 1.41309C190.248 1.41309 190.436 1.47589 190.615 1.61719C190.788 1.75222 190.882 1.97831 190.882 2.28761C190.882 2.43362 190.851 2.58906 190.796 2.75235C190.733 2.90935 190.67 3.08834 190.576 3.27518C190.403 3.65513 190.199 4.12301 189.964 4.67881L189.179 6.50008C188.912 7.15165 188.629 7.83463 188.346 8.54115L187.499 10.6136C187.216 11.2856 186.965 11.9168 186.729 12.5197L186.117 14.0787L186.068 14.1306Z" fill="#CF4647"/>
<path d="M200.717 11.917C200.816 11.8495 200.906 11.7961 200.989 11.7553C201.071 11.7145 201.151 11.6925 201.224 11.6925C201.377 11.6925 201.491 11.7616 201.567 11.8966C201.645 12.0316 201.692 12.1949 201.692 12.3928C201.692 12.6047 201.645 12.8214 201.551 13.0412C201.457 13.261 201.331 13.4463 201.143 13.5907C200.405 14.2454 199.745 14.842 199.18 15.3806C198.599 15.9191 198.065 16.3823 197.547 16.7701C197.029 17.1626 196.527 17.4609 196.04 17.6807C195.553 17.9005 195.035 18.0104 194.47 18.0104C193.952 18.0104 193.544 17.9005 193.261 17.665C192.978 17.4452 192.837 17.1312 192.837 16.723V16.6288C192.837 16.6131 192.853 16.566 192.853 16.5346C192.884 16.2991 192.994 16.0165 193.183 15.6867C193.371 15.3727 193.591 15.043 193.858 14.6976C194.125 14.3522 194.407 14.0068 194.706 13.6614C195.004 13.316 195.271 12.9862 195.538 12.6722C195.789 12.3582 195.993 12.0756 196.166 11.8087C196.338 11.5575 196.417 11.3377 196.417 11.1807C196.417 11.0865 196.385 11.008 196.32 10.9452C196.246 10.8981 196.131 10.8667 195.974 10.8667C195.692 10.8667 195.409 10.9452 195.117 11.0865C194.819 11.2278 194.527 11.4319 194.238 11.6674C193.955 11.9186 193.672 12.1855 193.402 12.4995C193.132 12.8135 192.884 13.1432 192.633 13.473C192.398 13.8184 192.178 14.1481 191.974 14.4935C191.785 14.8389 191.612 15.1529 191.471 15.4355L191.298 15.8123L191.063 16.3776L190.78 17.0056L190.513 17.6179L190.294 18.136C190.231 18.293 190.184 18.3872 190.152 18.45C190.121 18.5285 190.074 18.6699 189.995 18.874L189.713 19.593L189.383 20.4566L189.069 21.3044L188.802 22.0235C188.724 22.2276 188.676 22.3658 188.661 22.4396C188.582 22.6437 188.504 22.8478 188.41 23.0362C188.315 23.2246 188.213 23.3863 188.092 23.5292C187.973 23.6705 187.835 23.7882 187.68 23.8746C187.522 23.9531 187.35 24.0002 187.161 24.0002C186.91 24.0002 186.706 23.9374 186.549 23.8244C186.392 23.7145 186.298 23.4789 186.298 23.1492C186.298 22.9922 186.314 22.8195 186.361 22.6468C186.392 22.4741 186.455 22.314 186.518 22.1444C186.565 21.9717 186.643 21.8147 186.706 21.6577C186.769 21.5007 186.832 21.3437 186.879 21.1929C187.24 20.3765 187.625 19.5601 188.009 18.7342C188.394 17.9084 188.763 17.1014 189.124 16.3006C189.479 15.4999 189.807 14.7149 190.113 13.9298C190.411 13.1605 190.663 12.4132 190.867 11.7004L191.087 11.0786C191.181 10.8117 191.291 10.5448 191.416 10.2936C191.542 10.0424 191.683 9.80687 191.84 9.61846C191.997 9.43006 192.17 9.33114 192.343 9.33114C192.625 9.33114 192.825 9.39394 192.949 9.51955C193.074 9.65771 193.137 9.83356 193.137 10.0848C193.137 10.1319 193.131 10.2104 193.117 10.3203C193.101 10.4302 193.085 10.5401 193.06 10.6578L192.993 10.9876C192.977 11.0975 192.945 11.176 192.93 11.2231C193.181 10.9467 193.464 10.6735 193.759 10.3988C194.057 10.1272 194.371 9.88066 194.685 9.66085C194.999 9.44105 195.329 9.25264 195.659 9.11918C195.988 8.97788 196.318 8.90723 196.648 8.90723C196.883 8.90723 197.103 8.93863 197.332 9.00143C197.552 9.06737 197.756 9.16315 197.929 9.29032C198.113 9.41593 198.255 9.57293 198.365 9.76134C198.475 9.94975 198.53 10.1743 198.53 10.427C198.53 10.7615 198.442 11.1179 198.279 11.4947C198.106 11.8778 197.902 12.264 197.642 12.6408C197.39 13.0271 197.112 13.4007 196.816 13.7634C196.517 14.1245 196.25 14.4542 195.984 14.7526L195.324 15.5219C195.151 15.726 195.057 15.8673 195.054 15.9458C195.054 16.04 195.085 16.1185 195.148 16.1813C195.211 16.2441 195.321 16.2755 195.462 16.2755C195.585 16.2755 195.757 16.2049 195.98 16.0714C196.213 15.9301 196.53 15.7103 196.938 15.3869C197.346 15.0571 197.874 14.6332 198.503 14.0837C199.132 13.5405 199.917 12.8591 200.838 12.0316L200.717 11.917Z" fill="#CF4647"/>
<path d="M24 0H0V24H24V0Z" fill="#F7DF1E"/>
<path d="M16.122 18.7502C16.6054 19.5395 17.2344 20.1197 18.3468 20.1197C19.2812 20.1197 19.8782 19.6526 19.8782 19.0073C19.8782 18.234 19.2649 17.9601 18.2363 17.5102L17.6725 17.2683C16.045 16.5749 14.9639 15.7064 14.9639 13.8702C14.9639 12.1787 16.2527 10.8911 18.2668 10.8911C19.7007 10.8911 20.7315 11.3902 21.4744 12.6968L19.7182 13.8244C19.3315 13.1311 18.9144 12.858 18.2668 12.858C17.6062 12.858 17.1875 13.277 17.1875 13.8244C17.1875 14.501 17.6066 14.7749 18.5742 15.194L19.138 15.4355C21.0542 16.2572 22.1361 17.0949 22.1361 18.9784C22.1361 21.0088 20.541 22.1212 18.399 22.1212C16.3045 22.1212 14.9513 21.1231 14.2892 19.8149L16.122 18.7502ZM8.15515 18.9456C8.50943 19.5742 8.83172 20.1056 9.60657 20.1056C10.3475 20.1056 10.815 19.8157 10.815 18.6884V11.0199H13.0702V18.7189C13.0702 21.0542 11.701 22.117 9.70257 22.117C7.89686 22.117 6.85115 21.1825 6.31934 20.057L8.15515 18.9456Z" fill="black"/>
<path d="M107.887 24C114.514 24 119.887 18.6274 119.887 12C119.887 5.37258 114.514 0 107.887 0C101.259 0 95.8867 5.37258 95.8867 12C95.8867 18.6274 101.259 24 107.887 24Z" fill="#CC6699"/>
<path d="M114.343 6.6719C114.199 6.0959 113.791 5.6159 113.167 5.2799C111.943 4.6319 109.975 4.60791 108.175 5.25591C107.095 5.63991 105.055 6.5039 103.519 7.9199C101.983 9.3599 101.743 10.6319 101.863 11.1359C102.127 12.5279 103.591 13.5119 104.743 14.3279C105.055 14.5439 105.343 14.7359 105.559 14.9279C104.911 15.2639 103.159 16.2479 102.679 17.2799C102.319 18.0959 102.487 18.6959 102.631 18.9599C102.775 19.2719 103.015 19.5119 103.255 19.5839C103.495 19.6559 103.759 19.6799 104.023 19.6799C105.055 19.6799 106.063 19.1279 106.687 18.1919C107.311 17.2559 107.359 16.0079 107.071 15.2399C107.479 15.1439 107.911 15.1439 108.391 15.1919C109.327 15.3119 109.783 15.6719 109.999 15.9599C110.239 16.2719 110.287 16.5839 110.263 16.7759C110.215 17.1359 109.927 17.3519 109.783 17.4479C109.663 17.5199 109.567 17.5919 109.591 17.7359C109.639 17.9279 109.831 17.9039 109.903 17.9039C110.119 17.8559 110.887 17.4719 110.935 16.6079C110.959 16.0799 110.743 15.5519 110.335 15.1199C109.807 14.5679 109.015 14.2799 108.103 14.3039C107.431 14.3039 106.975 14.3759 106.615 14.4959L106.591 14.4719C106.255 14.1119 105.799 13.7759 105.391 13.4399C104.431 12.7199 103.543 12.0239 103.591 10.9919C103.663 9.6959 104.935 8.4239 107.407 7.1999C109.591 6.1199 111.367 6.0719 112.303 6.4079C112.687 6.55191 112.951 6.7439 113.047 6.9599C113.239 7.3679 113.167 7.8959 112.831 8.4719C112.279 9.4319 110.887 10.6319 108.751 10.8719C107.455 11.0159 106.903 10.4399 106.879 10.4159C106.735 10.2479 106.639 10.1519 106.471 10.2479C106.279 10.3439 106.375 10.6079 106.423 10.7039C106.519 10.9679 106.927 11.4239 107.623 11.6639C108.175 11.8559 109.591 11.9759 111.343 11.3039C113.359 10.4879 114.751 8.3279 114.343 6.6719ZM106.063 16.8959C106.039 16.9439 106.039 16.9919 106.015 17.0399C105.991 17.0879 105.967 17.1359 105.967 17.1839C105.871 17.3999 105.727 17.6159 105.535 17.8079C104.983 18.4079 104.239 18.5759 103.999 18.4319C103.927 18.3839 103.903 18.3119 103.879 18.2159C103.831 17.9279 103.999 17.3519 104.503 16.8479C105.103 16.2239 105.943 15.7679 106.135 15.6719C106.207 16.1039 106.183 16.5119 106.063 16.8959Z" fill="white"/>
</svg>
