<svg width="40" height="37" viewBox="0 0 40 37" fill="none" xmlns="http://www.w3.org/2000/svg">
<path d="M25.3187 23.7313C25.0357 23.7313 24.7526 23.6329 24.5202 23.4296C24.0064 22.9796 23.9459 22.1913 24.3877 21.6663L26.1565 19.5646L24.3861 17.4613C23.9443 16.9379 24.0048 16.1479 24.5186 15.6979C25.0357 15.2479 25.8096 15.3096 26.2498 15.8329L28.7042 18.7496C29.0986 19.2179 29.0986 19.9079 28.7042 20.3779L26.2498 23.2946C26.0076 23.5829 25.664 23.7313 25.3187 23.7313Z" fill="#8787FF"/>
<path d="M14.6829 23.731C14.3376 23.731 13.994 23.5827 13.7502 23.2943L11.2958 20.3777C10.9014 19.9093 10.9014 19.2193 11.2958 18.7493L13.7502 15.8327C14.192 15.3093 14.966 15.246 15.4814 15.6977C15.9952 16.1477 16.0557 16.936 15.6139 17.461L13.8451 19.5643L15.6156 21.6677C16.0574 22.191 15.9968 22.981 15.483 23.431C15.2507 23.631 14.966 23.731 14.6829 23.731Z" fill="#8787FF"/>
<path d="M18.4987 26.1994C17.8376 26.0444 17.4269 25.3728 17.5775 24.7011L20.0319 13.8678C20.1841 13.1961 20.8435 12.7811 21.5029 12.9294C22.164 13.0844 22.5747 13.7561 22.4242 14.4278L19.9697 25.2611C19.8208 25.9228 19.1745 26.3544 18.4987 26.1994Z" fill="#8787FF"/>
<path fill-rule="evenodd" clip-rule="evenodd" d="M35 5.89941H5C3.89543 5.89941 3 6.79484 3 7.89941V31.8994C3 33.004 3.89543 33.8994 5 33.8994H35C36.1046 33.8994 37 33.004 37 31.8994V7.89941C37 6.79484 36.1046 5.89941 35 5.89941ZM5 0.899414C2.23858 0.899414 0 3.13799 0 5.89941V31.8994C0 34.6608 2.23858 36.8994 5 36.8994H35C37.7614 36.8994 40 34.6608 40 31.8994V5.89941C40 3.13799 37.7614 0.899414 35 0.899414H5Z" fill="#8787FF"/>
</svg>
