<svg width="40" height="36" viewBox="0 0 40 36" fill="none" xmlns="http://www.w3.org/2000/svg">
<path d="M19.9929 21.1756C18.0394 21.1756 16.4558 19.587 16.4558 17.6274C16.4558 15.6677 18.0394 14.0791 19.9929 14.0791C21.9464 14.0791 23.5301 15.6677 23.5301 17.6274C23.5301 19.587 21.9464 21.1756 19.9929 21.1756Z" fill="#00D8FF"/>
<path d="M19.993 25.7559C24.9605 25.7559 29.3009 25.1692 32.5492 24.0524C34.656 23.3315 36.4457 22.3702 37.721 21.2746C39.0739 20.1154 39.7926 18.8502 39.7926 17.6274C39.7926 15.2807 37.2278 12.9835 32.9226 11.4851C29.3995 10.2552 24.8055 9.56958 20 9.56958C15.2791 9.56958 10.7484 10.234 7.24649 11.4497C5.19606 12.1566 3.46975 13.0754 2.24372 14.0933C0.912006 15.2101 0.207394 16.4329 0.207394 17.6274C0.207394 20.0659 3.07517 22.5328 7.69744 24.0666C10.9668 25.1551 15.3355 25.7559 19.993 25.7559ZM19.993 11.266C24.5518 11.266 29.0613 11.9304 32.3589 13.0825C36.3189 14.4679 38.0945 16.3622 38.0945 17.6274C38.0945 18.9421 36.185 21.0131 31.9996 22.4479C28.9275 23.5011 24.7702 24.0595 19.993 24.0595C15.5116 24.0595 11.3332 23.4941 8.2259 22.455C3.87843 21.006 1.89142 18.935 1.89142 17.6274C1.89142 16.9559 2.39874 16.1643 3.32179 15.3938C4.38575 14.5032 5.9359 13.6904 7.78904 13.0472C11.1219 11.9021 15.4552 11.266 19.993 11.266Z" fill="#00D8FF"/>
<path d="M28.0185 35.3121C28.7372 35.3121 29.3713 35.1566 29.9068 34.8456C31.9291 33.6723 32.6337 30.2937 31.7811 25.8053C31.0835 22.1228 29.3784 17.797 26.9756 13.6197C24.6152 9.52006 21.7826 5.91525 18.9853 3.4767C17.3506 2.04892 15.6948 1.00281 14.201 0.451489C12.5733 -0.149313 11.1641 -0.149313 10.1354 0.444421C8.02857 1.66016 7.33101 5.3922 8.31746 10.1703C9.01503 13.5631 10.6779 17.6556 13.0031 21.7057C15.4834 26.0174 18.1609 29.495 20.7469 31.7639C22.4238 33.2341 24.1501 34.3084 25.7285 34.8668C26.5529 35.1637 27.328 35.3121 28.0185 35.3121ZM26.2499 14.0437L25.5171 14.4678C27.793 18.4261 29.477 22.6741 30.1253 26.1234C30.9074 30.2583 30.1535 32.7464 29.0684 33.3754C28.8006 33.5309 28.4483 33.6158 28.0185 33.6158C26.6163 33.6158 24.4109 32.7252 21.8601 30.4916C19.4151 28.3499 16.8574 25.0137 14.4687 20.8646C12.2281 16.97 10.6356 13.0542 9.97331 9.83813C9.05026 5.33565 9.84648 2.57903 10.9809 1.92169C11.5587 1.58948 12.4958 1.63189 13.6232 2.04891C14.9267 2.52956 16.3994 3.46964 17.8791 4.76313C20.5355 7.08151 23.2482 10.5308 25.5171 14.4749L26.2499 14.0437Z" fill="#00D8FF"/>
<path d="M11.9674 35.3333C13.884 35.3333 16.3149 34.1741 18.8515 31.983C21.6841 29.5374 24.5659 25.8972 26.9757 21.7199C29.3432 17.6203 31.0343 13.3581 31.7459 9.70383C32.1617 7.56922 32.2392 5.61131 31.9714 4.03509C31.6755 2.3175 30.9779 1.0947 29.9421 0.493893C27.8424 -0.728915 24.27 0.529234 20.6342 3.77357C18.0553 6.07075 15.3496 9.56247 13.0173 13.6055C10.53 17.9172 8.86008 21.9814 8.19774 25.36C7.76793 27.5512 7.69746 29.5868 8.00045 31.2408C8.32457 33.0008 9.05737 34.2519 10.1143 34.8668C10.6427 35.1778 11.2699 35.3333 11.9674 35.3333ZM25.5101 20.8717C23.2272 24.8299 20.3946 28.4135 17.7453 30.6966C14.5675 33.439 12.0449 34.0328 10.9528 33.3966C9.81835 32.7393 8.98691 30.0463 9.84654 25.6922C10.4807 22.4974 12.0802 18.6098 14.4759 14.4608C16.7236 10.5662 19.3095 7.22288 21.7545 5.04585C25.1789 1.99236 27.9551 1.30674 29.0895 1.96409C29.6673 2.2963 30.0971 3.13742 30.3015 4.32489C30.534 5.69613 30.4635 7.44906 30.0831 9.37869C29.4066 12.8492 27.786 16.9276 25.5101 20.8717Z" fill="#00D8FF"/>
</svg>
