<svg width="36" height="36" viewBox="0 0 36 36" fill="none" xmlns="http://www.w3.org/2000/svg">
<path d="M18.0001 35.6663C27.7266 35.6663 35.6114 27.7567 35.6114 17.9997C35.6114 8.24264 27.7266 0.333008 18.0001 0.333008C8.27356 0.333008 0.388672 8.24264 0.388672 17.9997C0.388672 27.7567 8.27356 35.6663 18.0001 35.6663Z" fill="#CC6699"/>
<path d="M27.4748 10.1555C27.2635 9.30754 26.6647 8.60088 25.7489 8.10621C23.9526 7.15221 21.0643 7.11688 18.4226 8.07088C16.8376 8.63621 13.8436 9.90821 11.5894 11.9929C9.33512 14.1129 8.98289 15.9855 9.15901 16.7275C9.54646 18.7769 11.695 20.2255 13.3857 21.4269C13.8436 21.7449 14.2663 22.0275 14.5833 22.3102C13.6323 22.8049 11.061 24.2535 10.3566 25.7729C9.82824 26.9742 10.0748 27.8575 10.2861 28.2462C10.4975 28.7055 10.8497 29.0588 11.2019 29.1649C11.5542 29.2708 11.9416 29.3062 12.3291 29.3062C13.8436 29.3062 15.323 28.4935 16.2388 27.1155C17.1546 25.7375 17.225 23.9002 16.8023 22.7695C17.4011 22.6282 18.0351 22.6282 18.7396 22.6989C20.1133 22.8755 20.7825 23.4055 21.0995 23.8295C21.4518 24.2889 21.5222 24.7482 21.487 25.0309C21.4165 25.5609 20.9939 25.8789 20.7825 26.0202C20.6064 26.1262 20.4655 26.2322 20.5007 26.4442C20.5712 26.7269 20.853 26.6915 20.9586 26.6915C21.2756 26.6209 22.4028 26.0555 22.4732 24.7835C22.5084 24.0062 22.1914 23.2289 21.5926 22.5929C20.8177 21.7802 19.6554 21.3562 18.3169 21.3915C17.3307 21.3915 16.6615 21.4975 16.1331 21.6742L16.0979 21.6389C15.6048 21.1089 14.9355 20.6142 14.3368 20.1195C12.9278 19.0595 11.6246 18.0349 11.695 16.5155C11.8007 14.6075 13.6675 12.7349 17.2955 10.9329C20.5007 9.34288 23.1072 9.27221 24.4809 9.76688C25.0445 9.97888 25.4319 10.2615 25.5728 10.5795C25.8546 11.1802 25.7489 11.9575 25.2558 12.8055C24.4457 14.2189 22.4028 15.9855 19.2679 16.3389C17.3659 16.5509 16.5558 15.7029 16.5206 15.6675C16.3092 15.4202 16.1683 15.2789 15.9218 15.4202C15.64 15.5615 15.7809 15.9502 15.8513 16.0915C15.9922 16.4802 16.591 17.1515 17.6125 17.5049C18.4226 17.7875 20.5007 17.9642 23.072 16.9749C26.0307 15.7735 28.0736 12.5935 27.4748 10.1555ZM15.323 25.2075C15.2878 25.2782 15.2878 25.3489 15.2525 25.4195C15.2173 25.4902 15.1821 25.5609 15.1821 25.6315C15.0412 25.9495 14.8299 26.2675 14.5481 26.5502C13.738 27.4335 12.6461 27.6809 12.2938 27.4689C12.1882 27.3982 12.1529 27.2922 12.1177 27.1509C12.0473 26.7269 12.2938 25.8789 13.0335 25.1369C13.9141 24.2182 15.1469 23.5469 15.4287 23.4055C15.5343 24.0415 15.4991 24.6422 15.323 25.2075Z" fill="white"/>
</svg>
